<svg width="348" height="373" viewBox="0 0 348 373" fill="none" xmlns="http://www.w3.org/2000/svg">
<g filter="url(#filter0_d_27_1241)">
<rect x="74" y="70.1898" width="200" height="224.81" rx="25" fill="url(#paint0_linear_27_1241)"/>
<rect x="74.5" y="70.6898" width="199" height="223.81" rx="24.5" stroke="#98F2E1"/>
</g>
<path d="M149.165 252.228C149.059 252.228 148.965 252.188 148.885 252.108C148.805 252.028 148.765 251.935 148.765 251.828C148.765 251.761 148.772 251.688 148.785 251.608L153.745 238.668C153.799 238.535 153.872 238.428 153.965 238.348C154.059 238.268 154.199 238.228 154.385 238.228H155.745C155.919 238.228 156.052 238.268 156.145 238.348C156.252 238.428 156.332 238.535 156.385 238.668L161.325 251.608C161.352 251.688 161.365 251.761 161.365 251.828C161.365 251.935 161.325 252.028 161.245 252.108C161.165 252.188 161.072 252.228 160.965 252.228H159.945C159.785 252.228 159.665 252.188 159.585 252.108C159.519 252.028 159.472 251.955 159.445 251.888L158.345 249.048H151.785L150.685 251.888C150.672 251.955 150.625 252.028 150.545 252.108C150.465 252.188 150.345 252.228 150.185 252.228H149.165ZM152.365 247.328H157.765L155.065 240.228L152.365 247.328ZM166.844 252.428C166.097 252.428 165.457 252.335 164.924 252.148C164.39 251.961 163.957 251.735 163.624 251.468C163.29 251.201 163.037 250.935 162.864 250.668C162.704 250.401 162.617 250.188 162.604 250.028C162.59 249.881 162.637 249.768 162.744 249.688C162.85 249.608 162.957 249.568 163.064 249.568H163.944C164.024 249.568 164.084 249.581 164.124 249.608C164.177 249.621 164.244 249.675 164.324 249.768C164.497 249.955 164.69 250.141 164.904 250.328C165.117 250.515 165.377 250.668 165.684 250.788C166.004 250.908 166.397 250.968 166.864 250.968C167.544 250.968 168.104 250.841 168.544 250.588C168.984 250.321 169.204 249.935 169.204 249.428C169.204 249.095 169.11 248.828 168.924 248.628C168.75 248.428 168.43 248.248 167.964 248.088C167.51 247.928 166.884 247.761 166.084 247.588C165.284 247.401 164.65 247.175 164.184 246.908C163.717 246.628 163.384 246.301 163.184 245.928C162.984 245.541 162.884 245.108 162.884 244.628C162.884 244.135 163.03 243.661 163.324 243.208C163.617 242.741 164.044 242.361 164.604 242.068C165.177 241.775 165.89 241.628 166.744 241.628C167.437 241.628 168.03 241.715 168.524 241.888C169.017 242.061 169.424 242.281 169.744 242.548C170.064 242.801 170.304 243.055 170.464 243.308C170.624 243.561 170.71 243.775 170.724 243.948C170.737 244.081 170.697 244.195 170.604 244.288C170.51 244.368 170.404 244.408 170.284 244.408H169.444C169.35 244.408 169.27 244.388 169.204 244.348C169.15 244.308 169.097 244.261 169.044 244.208C168.91 244.035 168.75 243.861 168.564 243.688C168.39 243.515 168.157 243.375 167.864 243.268C167.584 243.148 167.21 243.088 166.744 243.088C166.077 243.088 165.577 243.228 165.244 243.508C164.91 243.788 164.744 244.141 164.744 244.568C164.744 244.821 164.817 245.048 164.964 245.248C165.11 245.448 165.39 245.628 165.804 245.788C166.217 245.948 166.83 246.121 167.644 246.308C168.524 246.481 169.217 246.715 169.724 247.008C170.23 247.301 170.59 247.641 170.804 248.028C171.017 248.415 171.124 248.861 171.124 249.368C171.124 249.928 170.957 250.441 170.624 250.908C170.304 251.375 169.824 251.748 169.184 252.028C168.557 252.295 167.777 252.428 166.844 252.428ZM177.579 252.428C176.206 252.428 175.112 252.008 174.299 251.168C173.486 250.315 173.039 249.155 172.959 247.688C172.946 247.515 172.939 247.295 172.939 247.028C172.939 246.748 172.946 246.521 172.959 246.348C173.012 245.401 173.232 244.575 173.619 243.868C174.006 243.148 174.532 242.595 175.199 242.208C175.879 241.821 176.672 241.628 177.579 241.628C178.592 241.628 179.439 241.841 180.119 242.268C180.812 242.695 181.339 243.301 181.699 244.088C182.059 244.875 182.239 245.795 182.239 246.848V247.188C182.239 247.335 182.192 247.448 182.099 247.528C182.019 247.608 181.912 247.648 181.779 247.648H174.859C174.859 247.661 174.859 247.688 174.859 247.728C174.859 247.768 174.859 247.801 174.859 247.828C174.886 248.375 175.006 248.888 175.219 249.368C175.432 249.835 175.739 250.215 176.139 250.508C176.539 250.801 177.019 250.948 177.579 250.948C178.059 250.948 178.459 250.875 178.779 250.728C179.099 250.581 179.359 250.421 179.559 250.248C179.759 250.061 179.892 249.921 179.959 249.828C180.079 249.655 180.172 249.555 180.239 249.528C180.306 249.488 180.412 249.468 180.559 249.468H181.519C181.652 249.468 181.759 249.508 181.839 249.588C181.932 249.655 181.972 249.755 181.959 249.888C181.946 250.088 181.839 250.335 181.639 250.628C181.439 250.908 181.152 251.188 180.779 251.468C180.406 251.748 179.952 251.981 179.419 252.168C178.886 252.341 178.272 252.428 177.579 252.428ZM174.859 246.268H180.339V246.208C180.339 245.608 180.226 245.075 179.999 244.608C179.786 244.141 179.472 243.775 179.059 243.508C178.646 243.228 178.152 243.088 177.579 243.088C177.006 243.088 176.512 243.228 176.099 243.508C175.699 243.775 175.392 244.141 175.179 244.608C174.966 245.075 174.859 245.608 174.859 246.208V246.268ZM188.89 252.428C187.877 252.428 187.03 252.235 186.35 251.848C185.67 251.461 185.15 250.928 184.79 250.248C184.43 249.555 184.23 248.768 184.19 247.888C184.177 247.661 184.17 247.375 184.17 247.028C184.17 246.668 184.177 246.381 184.19 246.168C184.23 245.275 184.43 244.488 184.79 243.808C185.164 243.128 185.69 242.595 186.37 242.208C187.05 241.821 187.89 241.628 188.89 241.628C189.89 241.628 190.73 241.821 191.41 242.208C192.09 242.595 192.61 243.128 192.97 243.808C193.344 244.488 193.55 245.275 193.59 246.168C193.604 246.381 193.61 246.668 193.61 247.028C193.61 247.375 193.604 247.661 193.59 247.888C193.55 248.768 193.35 249.555 192.99 250.248C192.63 250.928 192.11 251.461 191.43 251.848C190.75 252.235 189.904 252.428 188.89 252.428ZM188.89 250.888C189.717 250.888 190.377 250.628 190.87 250.108C191.364 249.575 191.63 248.801 191.67 247.788C191.684 247.588 191.69 247.335 191.69 247.028C191.69 246.721 191.684 246.468 191.67 246.268C191.63 245.255 191.364 244.488 190.87 243.968C190.377 243.435 189.717 243.168 188.89 243.168C188.064 243.168 187.397 243.435 186.89 243.968C186.397 244.488 186.137 245.255 186.11 246.268C186.097 246.468 186.09 246.721 186.09 247.028C186.09 247.335 186.097 247.588 186.11 247.788C186.137 248.801 186.397 249.575 186.89 250.108C187.397 250.628 188.064 250.888 188.89 250.888Z" fill="black"/>
<path d="M187.803 150.285C187.576 149.198 186.954 148.381 186.098 148.044C186.037 148.019 185.973 148.017 185.911 147.998C186.524 144.963 188.252 133.929 182.59 127.472C179.308 123.73 174.187 122.249 167.378 123.066C167.252 123.011 167.116 122.979 166.975 122.974C161.626 122.786 157.533 124.392 154.849 127.74C149.592 134.297 151.495 145.361 152.044 147.984C151.963 148.007 151.88 148.012 151.801 148.044C150.945 148.381 150.324 149.198 150.095 150.285C149.892 151.254 150.005 152.373 150.414 153.435C151.163 155.384 152.678 156.628 154.133 156.628C154.289 156.628 154.444 156.613 154.597 156.584C155.831 160.562 157.89 163.87 161.291 165.9V169.978H159.524V181.479H178.374V169.978H176.607V165.925C180.014 163.898 182.075 160.58 183.308 156.586C183.459 156.614 183.612 156.628 183.766 156.628C185.219 156.628 186.735 155.384 187.485 153.436C187.893 152.373 188.006 151.254 187.803 150.285ZM152.035 152.796C151.753 152.06 151.666 151.279 151.797 150.651C151.902 150.156 152.133 149.803 152.432 149.685C152.513 149.654 152.601 149.638 152.695 149.638C152.865 149.638 153.053 149.69 153.247 149.787C153.446 151.542 153.73 153.244 154.124 154.861C153.458 154.847 152.526 154.072 152.035 152.796ZM177.605 171.74C175.875 173.582 172.651 174.823 168.949 174.823C165.248 174.823 162.024 173.582 160.294 171.74H162.161C162.642 171.74 163.031 171.345 163.031 170.859V166.779C164.727 167.486 166.697 167.927 168.993 168.044C171.253 167.928 173.193 167.493 174.867 166.8V170.859C174.867 171.345 175.257 171.74 175.737 171.74H177.605ZM182.946 148.854C182.889 149.396 182.831 149.937 182.76 150.458C182.579 151.785 182.347 153.038 182.065 154.221C181.959 154.667 181.839 155.096 181.716 155.521C180.65 159.222 178.97 162.104 176.376 163.948C175.993 164.22 175.578 164.457 175.154 164.684C173.449 165.598 171.428 166.158 168.993 166.284C166.565 166.16 164.543 165.609 162.837 164.712C162.384 164.474 161.945 164.22 161.538 163.931C158.938 162.085 157.254 159.207 156.186 155.514C156.063 155.089 155.943 154.66 155.836 154.214C155.553 153.033 155.321 151.783 155.14 150.459C155.069 149.939 155.011 149.397 154.953 148.855C154.8 147.405 154.69 145.886 154.624 144.294C154.827 143.002 155.125 141.929 155.481 141.051C156.016 140.959 157.171 140.706 158.531 140.071C158.745 140.371 159.11 140.562 159.48 140.533C159.673 140.523 162.236 140.375 164.946 139.298C164.932 139.423 164.94 139.551 164.969 139.677C165.085 140.171 165.516 140.523 166.016 140.534C166.249 140.542 170.855 140.599 173.697 137.307C174.793 139.968 177.256 144.325 182.277 147.061L183.026 148.105C183.002 148.36 182.972 148.604 182.946 148.854ZM185.863 152.796C185.374 154.069 184.444 154.843 183.78 154.86C184.172 153.244 184.454 151.542 184.652 149.786C184.846 149.69 185.034 149.638 185.203 149.638C185.297 149.638 185.386 149.654 185.466 149.685C185.876 149.847 186.041 150.36 186.102 150.651C186.233 151.279 186.146 152.06 185.863 152.796ZM166.975 155.089V152.62C166.975 152.133 167.365 151.739 167.845 151.739C168.326 151.739 168.715 152.133 168.715 152.62V154.89H170.053C170.534 154.89 170.923 155.284 170.923 155.771C170.923 156.257 170.534 156.652 170.053 156.652H168.518C167.668 156.652 166.975 155.951 166.975 155.089ZM162.818 149.424C162.818 150.371 162.06 151.14 161.124 151.14C160.188 151.14 159.43 150.371 159.43 149.424C159.43 148.476 160.188 147.708 161.124 147.708C162.06 147.708 162.818 148.476 162.818 149.424ZM178.469 149.424C178.469 150.371 177.711 151.14 176.775 151.14C175.839 151.14 175.081 150.371 175.081 149.424C175.081 148.476 175.839 147.708 176.775 147.708C177.711 147.708 178.469 148.476 178.469 149.424ZM173.208 160.517C173.208 161.939 171.008 162.446 168.949 162.446C166.891 162.446 164.691 161.939 164.691 160.517C164.691 160.03 165.081 159.636 165.561 159.636C165.949 159.636 166.278 159.893 166.39 160.248C166.681 160.423 167.596 160.684 168.949 160.684C170.303 160.684 171.218 160.423 171.509 160.248C171.622 159.893 171.95 159.636 172.338 159.636C172.818 159.636 173.208 160.03 173.208 160.517ZM216.853 187.996C216.603 187.549 216.214 187.218 215.751 187.027C215.824 186.543 215.752 186.033 215.495 185.574C215.245 185.128 214.856 184.797 214.393 184.606C214.465 184.121 214.393 183.611 214.137 183.153C213.879 182.694 213.483 182.371 213.034 182.187C213.107 181.702 213.036 181.192 212.779 180.733C212.484 180.207 212.005 179.829 211.428 179.669C210.857 179.509 210.252 179.585 209.732 179.883L208.85 180.391C208.683 180.113 208.461 179.862 208.188 179.654V178.69H213.118C213.599 178.69 213.988 178.296 213.988 177.809C213.988 177.322 213.599 176.928 213.118 176.928H208.188V176.047H213.118C213.599 176.047 213.988 175.652 213.988 175.166C213.988 174.679 213.599 174.285 213.118 174.285H208.188V173.404H213.118C213.599 173.404 213.988 173.009 213.988 172.523C213.988 172.036 213.599 171.642 213.118 171.642H208.188V170.761H213.118C213.599 170.761 213.988 170.366 213.988 169.88C213.988 169.393 213.599 168.999 213.118 168.999H208.188L208.194 168.118H213.118C213.599 168.118 213.988 167.723 213.988 167.237C213.988 166.75 213.599 166.356 213.118 166.356H208.194C207.215 166.356 206.448 167.258 206.448 168.411V169.88V172.523V172.656C206.374 171.655 206.008 170.65 205.362 169.784C203.772 167.652 201.05 167.008 199.297 168.35C198.383 169.049 197.92 170.153 197.9 171.349C196.758 171.041 195.583 171.19 194.668 171.889C193.787 172.563 193.27 173.656 193.251 174.886C193.234 176.026 193.63 177.199 194.369 178.19C195.108 179.18 196.114 179.888 197.201 180.183C197.565 180.281 197.928 180.33 198.284 180.33C199.077 180.33 199.827 180.089 200.435 179.623C200.493 179.579 200.534 179.521 200.588 179.473L203.317 182.787L202.331 184.938C202.256 185.07 202.187 185.205 202.126 185.345L196.39 188.641L186.602 172.362C186.362 171.963 186.07 171.62 185.756 171.306C185.238 170.629 184.49 170.147 183.622 169.991C182.777 169.708 181.877 169.617 180.984 169.769V181.576C181.197 181.643 181.394 181.74 181.565 181.87C181.886 182.114 182.12 182.457 182.215 182.861L182.434 183.792L186.494 201.022V193.642L189.755 199.066C190.79 200.788 192.604 201.745 194.466 201.745C195.389 201.745 196.323 201.509 197.181 201.016L207.626 195.014C207.669 194.99 207.703 194.955 207.745 194.929C207.827 194.934 207.909 194.945 207.991 194.945C208.671 194.945 209.36 194.772 209.992 194.409L211.955 193.279L212.075 193.425C212.472 193.906 213.171 193.988 213.665 193.61L214.025 193.335L214.404 193.045L214.762 192.771C215.123 192.495 215.26 192.025 215.162 191.572L216.015 191.081C216.534 190.782 216.906 190.297 217.065 189.713C217.224 189.131 217.148 188.52 216.853 187.996ZM211.791 183.927L211.95 183.835C212.025 183.793 212.109 183.77 212.193 183.77C212.237 183.77 212.281 183.777 212.325 183.788C212.453 183.824 212.56 183.908 212.624 184.023C212.759 184.263 212.675 184.571 212.439 184.707L212.28 184.798L211.133 185.458L210.162 186.017C210.047 186.081 209.915 186.098 209.787 186.064C209.66 186.029 209.553 185.945 209.489 185.829C209.354 185.588 209.437 185.282 209.673 185.145L210.57 184.629L211.791 183.927ZM208.998 182.555L209.02 182.508C209.036 182.473 209.041 182.436 209.055 182.4C209.072 182.359 209.083 182.317 209.097 182.275L210.183 181.65L210.592 181.415C210.668 181.372 210.751 181.349 210.836 181.349C210.88 181.349 210.924 181.355 210.967 181.368C211.095 181.403 211.201 181.487 211.266 181.603C211.35 181.752 211.341 181.924 211.271 182.068C211.229 182.156 211.17 182.235 211.08 182.287L210.455 182.646L209.569 183.156L208.803 183.597C208.709 183.651 208.602 183.663 208.495 183.649L208.998 182.555ZM199.037 177.749C198.617 178.067 198.082 177.99 197.8 177.913C197.218 177.755 196.643 177.34 196.22 176.774C195.799 176.208 195.562 175.533 195.571 174.923C195.575 174.628 195.646 174.085 196.066 173.764C196.277 173.603 196.536 173.527 196.817 173.527C197.499 173.527 198.312 173.974 198.882 174.738C199.688 175.818 199.758 177.197 199.037 177.749ZM200.849 173.234C200.044 172.155 199.973 170.776 200.695 170.224C200.905 170.064 201.164 169.987 201.446 169.987C202.128 169.987 202.94 170.435 203.511 171.199C203.933 171.766 204.17 172.44 204.161 173.05C204.157 173.345 204.086 173.888 203.666 174.209C203.246 174.528 202.711 174.45 202.429 174.374C201.847 174.216 201.271 173.801 200.849 173.234ZM203.089 180.313C202.692 179.78 202.796 179.023 203.322 178.621C203.847 178.22 204.595 178.325 204.992 178.857C205.131 179.043 205.187 179.257 205.207 179.474C204.88 179.688 204.606 179.977 204.435 180.348L204.246 180.761C203.819 180.836 203.368 180.687 203.089 180.313ZM209.928 192.418L209.132 192.876C208.021 193.518 206.597 193.12 205.962 191.993L203.812 188.161C203.505 187.614 203.427 186.979 203.592 186.373L203.602 186.352L203.887 185.729L206.013 181.09C206.074 180.958 206.242 180.871 206.448 180.851C206.601 180.837 206.774 180.854 206.952 180.939C207.131 181.023 207.256 181.146 207.343 181.274C207.363 181.303 207.386 181.33 207.401 181.36C207.474 181.506 207.492 181.654 207.442 181.765L205.661 185.635L205.306 186.406C205.272 186.48 205.265 186.557 205.252 186.634C205.189 187.014 205.365 187.405 205.728 187.576C205.847 187.632 205.971 187.659 206.094 187.659C206.218 187.659 206.336 187.624 206.448 187.573V191.759C206.448 192.245 206.838 192.64 207.318 192.64C207.799 192.64 208.188 192.245 208.188 191.759V188.704L210.287 191.253L210.823 191.904L209.928 192.418ZM211.52 188.438C211.404 188.502 211.269 188.521 211.145 188.485C211.018 188.449 210.911 188.365 210.847 188.25C210.712 188.009 210.795 187.702 211.032 187.566L212.135 186.931L213.149 186.348L213.309 186.256C213.383 186.213 213.467 186.19 213.551 186.19C213.595 186.19 213.639 186.197 213.683 186.209C213.81 186.244 213.917 186.328 213.981 186.444C214.116 186.685 214.034 186.991 213.797 187.128L213.638 187.219L212.698 187.76L211.52 188.438ZM215.387 189.246C215.352 189.375 215.269 189.483 215.155 189.548C215.155 189.548 215.155 189.548 215.154 189.548L214.746 189.783L214.262 190.062L212.879 190.858C212.776 190.919 212.661 190.929 212.551 190.91C212.41 190.885 212.28 190.805 212.204 190.67C212.069 190.429 212.153 190.123 212.39 189.986L213.699 189.233L214.052 189.03L214.667 188.676C214.742 188.634 214.825 188.611 214.909 188.611C214.922 188.611 214.935 188.615 214.949 188.616C214.979 188.619 215.01 188.621 215.041 188.629C215.169 188.665 215.274 188.749 215.341 188.867C215.405 188.983 215.422 189.117 215.387 189.246ZM186.325 214.751L185.84 203.339C185.838 203.309 185.834 203.28 185.826 203.25L181.087 183.133C181.069 183.058 181.032 182.99 180.984 182.928C180.855 182.762 180.631 182.654 180.38 182.654H157.519C157.267 182.654 157.044 182.763 156.914 182.928C156.866 182.99 156.829 183.057 156.812 183.132L152.649 200.802L152.123 200.502L152.001 200.432C151.865 200.357 151.728 200.295 151.591 200.232L155.464 183.79L155.627 183.101L155.683 182.86C155.778 182.456 156.013 182.113 156.334 181.87C156.505 181.74 156.702 181.642 156.914 181.576V169.929V169.812C154.885 169.146 152.569 169.709 151.073 171.437L132.369 193.022C131.331 194.219 130.848 195.808 131.042 197.389C131.236 198.971 132.088 200.392 133.384 201.296L144.113 208.785C144.448 209.019 144.804 209.194 145.165 209.344C145.605 209.855 146.128 210.291 146.717 210.624L150.498 212.756L151.065 213.076L151.404 213.268L151.604 213.38C151.613 213.386 151.624 213.387 151.634 213.392L151.575 214.752L151.52 216.015C151.513 216.187 151.597 216.315 151.67 216.392C151.808 216.538 152.016 216.622 152.239 216.622H185.659C185.882 216.622 186.09 216.538 186.229 216.392C186.301 216.315 186.386 216.187 186.378 216.015L186.325 214.751ZM144.737 195.667L151.404 187.973V200.145C151.185 200.054 150.966 199.983 150.747 199.923C150.619 199.815 150.507 199.694 150.367 199.596L144.737 195.667ZM157.793 206.102C157.715 206.245 157.529 206.299 157.391 206.219C157.39 206.219 157.39 206.219 157.39 206.219L153.435 203.987C153.216 203.864 152.958 203.871 152.726 203.963C152.514 204.046 152.324 204.198 152.212 204.4C152.099 204.605 152.07 204.845 152.133 205.071C152.196 205.296 152.345 205.487 152.547 205.601L152.55 205.603L157.284 208.275C157.376 208.327 157.411 208.411 157.423 208.456C157.437 208.5 157.45 208.59 157.398 208.684C157.348 208.777 157.265 208.811 157.221 208.825C157.176 208.838 157.086 208.851 156.996 208.8L152.37 206.189L152.258 206.126C152.163 206.072 152.058 206.048 151.952 206.039C151.762 206.023 151.574 206.082 151.404 206.184C151.389 206.193 151.372 206.2 151.357 206.211C151.227 206.297 151.11 206.403 151.034 206.54C150.921 206.744 150.893 206.986 150.956 207.211C151.009 207.403 151.136 207.561 151.295 207.677C151.321 207.696 151.34 207.724 151.369 207.741L151.404 207.761L151.445 207.784L151.866 208.021L155.324 209.972C155.416 210.024 155.451 210.107 155.464 210.153C155.477 210.198 155.49 210.286 155.438 210.38C155.387 210.473 155.306 210.509 155.261 210.522C155.217 210.534 155.129 210.549 155.036 210.496L151.837 208.692L151.404 208.448L151.265 208.369L151.025 208.234L150.698 208.049L150.639 208.016C150.363 207.861 149.942 207.921 149.673 208.091C149.412 208.256 149.256 208.548 149.264 208.859C149.268 209.024 149.322 209.177 149.407 209.311C149.483 209.431 149.583 209.536 149.71 209.607L150.61 210.115L151.177 210.435L151.404 210.563L151.748 210.757L152.739 211.316C152.83 211.368 152.865 211.452 152.878 211.497C152.891 211.541 152.904 211.631 152.853 211.724C152.775 211.866 152.588 211.922 152.45 211.841L151.719 211.428L151.404 211.251L151.149 211.106L150.582 210.786L148.511 209.618L147.565 209.084C146.755 208.628 146.117 207.897 145.769 207.026C145.298 205.849 145.351 204.562 145.911 203.584C146.592 202.393 147.903 201.513 149.362 201.513C149.954 201.513 150.57 201.662 151.177 201.988C151.195 201.997 151.212 202.003 151.23 202.013L151.404 202.113L151.704 202.284L152.229 202.584L152.541 202.762L157.678 205.694C157.77 205.746 157.805 205.831 157.818 205.876C157.831 205.92 157.844 206.01 157.793 206.102ZM179.303 201.733C179.278 203.281 177.803 203.956 177.052 202.761L176.295 201.56C176.094 202.273 175.788 202.942 175.392 203.551C175.395 203.646 175.404 203.739 175.404 203.834C175.404 207.828 172.515 211.066 168.949 211.066C165.384 211.066 162.494 207.828 162.494 203.834C162.494 203.739 162.504 203.646 162.507 203.551C162.11 202.942 161.804 202.273 161.603 201.56L160.847 202.761C160.095 203.956 158.621 203.281 158.595 201.733C158.583 201.01 158.558 200.26 158.511 199.524C158.346 196.941 161.818 195.73 163.383 195.316C164.775 194.303 166.75 193.847 168.949 193.847C171.148 193.847 173.124 194.303 174.516 195.316C176.08 195.73 179.553 196.941 179.388 199.524C179.341 200.26 179.315 201.01 179.303 201.733ZM166.304 207.097C166.304 206.008 167.488 205.126 168.949 205.126C170.41 205.126 171.595 206.008 171.595 207.097C171.595 208.185 170.41 209.067 168.949 209.067C167.488 209.067 166.304 208.185 166.304 207.097Z" fill="#124C5F"/>
<defs>
<filter id="filter0_d_27_1241" x="0" y="0.189819" width="348" height="372.81" filterUnits="userSpaceOnUse" color-interpolation-filters="sRGB">
<feFlood flood-opacity="0" result="BackgroundImageFix"/>
<feColorMatrix in="SourceAlpha" type="matrix" values="0 0 0 0 0 0 0 0 0 0 0 0 0 0 0 0 0 0 127 0" result="hardAlpha"/>
<feOffset dy="4"/>
<feGaussianBlur stdDeviation="37"/>
<feColorMatrix type="matrix" values="0 0 0 0 0.780392 0 0 0 0 0.905882 0 0 0 0 0.882353 0 0 0 0.27 0"/>
<feBlend mode="normal" in2="BackgroundImageFix" result="effect1_dropShadow_27_1241"/>
<feBlend mode="normal" in="SourceGraphic" in2="effect1_dropShadow_27_1241" result="shape"/>
</filter>
<linearGradient id="paint0_linear_27_1241" x1="174" y1="70.1898" x2="174" y2="295" gradientUnits="userSpaceOnUse">
<stop stop-color="#F9FFFE"/>
<stop offset="1" stop-color="white" stop-opacity="0"/>
</linearGradient>
</defs>
</svg>
