<svg width="348" height="373" viewBox="0 0 348 373" fill="none" xmlns="http://www.w3.org/2000/svg">
<g filter="url(#filter0_d_27_1246)">
<rect x="74" y="70.1898" width="200" height="224.81" rx="25" fill="url(#paint0_linear_27_1246)"/>
<rect x="74.5" y="70.6898" width="199" height="223.81" rx="24.5" stroke="#98F2E1"/>
</g>
<path d="M150.196 252.228C150.049 252.228 149.936 252.188 149.856 252.108C149.776 252.015 149.736 251.901 149.736 251.768V238.708C149.736 238.561 149.776 238.448 149.856 238.368C149.936 238.275 150.049 238.228 150.196 238.228H155.676C156.676 238.228 157.489 238.395 158.116 238.728C158.756 239.048 159.223 239.488 159.516 240.048C159.823 240.608 159.976 241.235 159.976 241.928C159.976 242.475 159.883 242.948 159.696 243.348C159.523 243.735 159.303 244.055 159.036 244.308C158.769 244.548 158.509 244.735 158.256 244.868C158.776 245.121 159.236 245.535 159.636 246.108C160.049 246.681 160.256 247.375 160.256 248.188C160.256 248.921 160.089 249.595 159.756 250.208C159.423 250.821 158.923 251.315 158.256 251.688C157.603 252.048 156.789 252.228 155.816 252.228H150.196ZM151.696 250.608H155.556C156.423 250.608 157.089 250.375 157.556 249.908C158.023 249.441 158.256 248.868 158.256 248.188C158.256 247.481 158.023 246.901 157.556 246.448C157.089 245.981 156.423 245.748 155.556 245.748H151.696V250.608ZM151.696 244.148H155.376C156.229 244.148 156.876 243.955 157.316 243.568C157.756 243.168 157.976 242.628 157.976 241.948C157.976 241.268 157.756 240.748 157.316 240.388C156.876 240.028 156.229 239.848 155.376 239.848H151.696V244.148ZM165.735 252.428C165.069 252.428 164.462 252.295 163.915 252.028C163.369 251.761 162.929 251.401 162.595 250.948C162.262 250.495 162.095 249.981 162.095 249.408C162.095 248.488 162.469 247.755 163.215 247.208C163.962 246.661 164.935 246.301 166.135 246.128L169.115 245.708V245.128C169.115 244.488 168.929 243.988 168.555 243.628C168.195 243.268 167.602 243.088 166.775 243.088C166.175 243.088 165.689 243.208 165.315 243.448C164.955 243.688 164.702 243.995 164.555 244.368C164.475 244.568 164.335 244.668 164.135 244.668H163.235C163.089 244.668 162.975 244.628 162.895 244.548C162.829 244.455 162.795 244.348 162.795 244.228C162.795 244.028 162.869 243.781 163.015 243.488C163.175 243.195 163.415 242.908 163.735 242.628C164.055 242.348 164.462 242.115 164.955 241.928C165.462 241.728 166.075 241.628 166.795 241.628C167.595 241.628 168.269 241.735 168.815 241.948C169.362 242.148 169.789 242.421 170.095 242.768C170.415 243.115 170.642 243.508 170.775 243.948C170.922 244.388 170.995 244.835 170.995 245.288V251.768C170.995 251.901 170.949 252.015 170.855 252.108C170.775 252.188 170.669 252.228 170.535 252.228H169.615C169.469 252.228 169.355 252.188 169.275 252.108C169.195 252.015 169.155 251.901 169.155 251.768V250.908C168.982 251.148 168.749 251.388 168.455 251.628C168.162 251.855 167.795 252.048 167.355 252.208C166.915 252.355 166.375 252.428 165.735 252.428ZM166.155 250.928C166.702 250.928 167.202 250.815 167.655 250.588C168.109 250.348 168.462 249.981 168.715 249.488C168.982 248.995 169.115 248.375 169.115 247.628V247.068L166.795 247.408C165.849 247.541 165.135 247.768 164.655 248.088C164.175 248.395 163.935 248.788 163.935 249.268C163.935 249.641 164.042 249.955 164.255 250.208C164.482 250.448 164.762 250.628 165.095 250.748C165.442 250.868 165.795 250.928 166.155 250.928ZM174.331 252.228C174.197 252.228 174.084 252.188 173.991 252.108C173.911 252.015 173.871 251.901 173.871 251.768V242.288C173.871 242.155 173.911 242.048 173.991 241.968C174.084 241.875 174.197 241.828 174.331 241.828H175.271C175.404 241.828 175.511 241.875 175.591 241.968C175.684 242.048 175.731 242.155 175.731 242.288V243.168C176.077 242.715 176.511 242.348 177.031 242.068C177.564 241.775 178.244 241.628 179.071 241.628C179.937 241.628 180.671 241.821 181.271 242.208C181.884 242.581 182.344 243.108 182.651 243.788C182.957 244.455 183.111 245.235 183.111 246.128V251.768C183.111 251.901 183.071 252.015 182.991 252.108C182.911 252.188 182.804 252.228 182.671 252.228H181.671C181.537 252.228 181.424 252.188 181.331 252.108C181.251 252.015 181.211 251.901 181.211 251.768V246.228C181.211 245.295 180.984 244.568 180.531 244.048C180.077 243.515 179.411 243.248 178.531 243.248C177.704 243.248 177.037 243.515 176.531 244.048C176.037 244.568 175.791 245.295 175.791 246.228V251.768C175.791 251.901 175.744 252.015 175.651 252.108C175.571 252.188 175.464 252.228 175.331 252.228H174.331ZM179.511 240.428C179.177 240.428 178.911 240.375 178.711 240.268C178.511 240.148 178.324 240.035 178.151 239.928C177.991 239.808 177.804 239.748 177.591 239.748C177.444 239.748 177.331 239.795 177.251 239.888C177.184 239.981 177.117 240.081 177.051 240.188C176.997 240.281 176.897 240.328 176.751 240.328H176.111C176.017 240.328 175.937 240.295 175.871 240.228C175.804 240.161 175.771 240.088 175.771 240.008C175.771 239.808 175.804 239.608 175.871 239.408C175.951 239.195 176.064 239.001 176.211 238.828C176.357 238.641 176.531 238.495 176.731 238.388C176.944 238.281 177.177 238.228 177.431 238.228C177.777 238.228 178.051 238.288 178.251 238.408C178.451 238.515 178.637 238.628 178.811 238.748C178.984 238.855 179.164 238.908 179.351 238.908C179.524 238.908 179.644 238.861 179.711 238.768C179.777 238.661 179.837 238.561 179.891 238.468C179.957 238.361 180.064 238.308 180.211 238.308H180.851C180.957 238.308 181.037 238.341 181.091 238.408C181.157 238.475 181.191 238.555 181.191 238.648C181.191 238.835 181.151 239.035 181.071 239.248C181.004 239.461 180.897 239.661 180.751 239.848C180.604 240.021 180.424 240.161 180.211 240.268C180.011 240.375 179.777 240.428 179.511 240.428ZM190.26 252.428C189.246 252.428 188.4 252.235 187.72 251.848C187.04 251.461 186.52 250.928 186.16 250.248C185.8 249.555 185.6 248.768 185.56 247.888C185.546 247.661 185.54 247.375 185.54 247.028C185.54 246.668 185.546 246.381 185.56 246.168C185.6 245.275 185.8 244.488 186.16 243.808C186.533 243.128 187.06 242.595 187.74 242.208C188.42 241.821 189.26 241.628 190.26 241.628C191.26 241.628 192.1 241.821 192.78 242.208C193.46 242.595 193.98 243.128 194.34 243.808C194.713 244.488 194.92 245.275 194.96 246.168C194.973 246.381 194.98 246.668 194.98 247.028C194.98 247.375 194.973 247.661 194.96 247.888C194.92 248.768 194.72 249.555 194.36 250.248C194 250.928 193.48 251.461 192.8 251.848C192.12 252.235 191.273 252.428 190.26 252.428ZM190.26 250.888C191.086 250.888 191.746 250.628 192.24 250.108C192.733 249.575 193 248.801 193.04 247.788C193.053 247.588 193.06 247.335 193.06 247.028C193.06 246.721 193.053 246.468 193.04 246.268C193 245.255 192.733 244.488 192.24 243.968C191.746 243.435 191.086 243.168 190.26 243.168C189.433 243.168 188.766 243.435 188.26 243.968C187.766 244.488 187.506 245.255 187.48 246.268C187.466 246.468 187.46 246.721 187.46 247.028C187.46 247.335 187.466 247.588 187.48 247.788C187.506 248.801 187.766 249.575 188.26 250.108C188.766 250.628 189.433 250.888 190.26 250.888Z" fill="black"/>
<path d="M191.168 165.708C190.658 164.547 189.767 163.128 187.983 161.966C186.963 161.321 183.014 160.805 182.886 164.418C182.886 164.418 181.23 164.676 181.357 165.837C181.357 165.837 180.338 169.321 185.18 168.934C185.18 168.934 186.072 175.514 186.836 176.933C186.836 176.933 187.218 178.224 187.346 179.514H189.384L189.512 176.933C189.512 176.933 190.658 177.708 191.55 179.514H194.481C194.353 178.482 194.226 177.579 193.971 176.933C193.971 176.933 198.303 176.933 199.832 174.998C199.832 174.998 201.106 177.45 202.635 177.579V179.643H204.674C204.801 179.256 204.801 178.869 204.929 178.224C204.929 178.224 205.693 178.611 206.075 179.643H207.859C207.604 178.74 205.311 170.353 204.546 169.708C204.546 169.708 205.693 169.579 206.075 170.998C206.075 170.998 206.713 173.966 207.987 173.837C207.987 173.837 208.879 171.901 207.35 169.45C207.35 169.45 206.713 167.644 203.4 167.902L193.844 167.644C192.57 167.386 191.678 166.611 191.168 165.708Z" fill="#124C5F"/>
<path d="M179.574 155.773C180.338 154.741 180.211 153.192 179.191 152.289C178.172 151.515 176.643 151.644 175.751 152.676C173.33 155.773 168.998 156.289 165.94 154.999L164.284 159.644C169.508 161.708 175.879 160.676 179.574 155.773Z" fill="#124C5F"/>
<path d="M157.913 147.645C161.361 147.645 164.157 144.814 164.157 141.322C164.157 137.831 161.361 135 157.913 135C154.465 135 151.67 137.831 151.67 141.322C151.67 144.814 154.465 147.645 157.913 147.645Z" fill="#124C5F"/>
<path d="M161.608 180.933L156.257 178.74L159.442 169.579C152.307 165.579 149.759 159.257 149.632 158.87C148.867 156.934 149.759 154.87 151.67 154.096C153.581 153.322 155.62 154.225 156.384 156.16C156.512 156.418 158.041 159.773 161.991 162.482L164.411 155.773C164.666 154.999 164.539 154.225 164.029 153.58C159.442 148.419 154.091 146.483 148.23 148.29C146.574 148.806 145.427 150.096 145.045 151.773L139.948 178.611C139.948 178.74 139.948 178.74 139.948 178.869C139.948 178.998 139.948 179.256 139.948 179.385L140.203 191.642L137.4 190.997C135.489 190.61 133.45 191.9 133.068 193.836C132.686 195.771 133.96 197.836 135.871 198.223L143.133 199.771C144.28 200.029 145.299 199.771 146.191 198.997C147.083 198.223 147.593 197.19 147.465 196.029L147.211 183.127L156.512 186.868V198.094C156.512 200.158 158.168 201.835 160.207 201.835C162.245 201.835 163.902 200.158 163.902 198.094V184.417C164.029 182.869 163.01 181.578 161.608 180.933Z" fill="#124C5F"/>
<path d="M171.419 166.869C159.315 165.966 155.492 157.063 155.365 156.676C154.855 155.386 153.454 154.87 152.18 155.386C150.906 155.902 150.396 157.321 150.906 158.612C151.16 159.128 156.002 170.74 171.164 171.901C172.566 172.03 173.713 170.998 173.713 169.579C173.713 168.16 172.821 166.998 171.419 166.869Z" fill="#124C5F"/>
<path d="M193.207 150.096C190.658 150.612 188.747 152.935 188.747 155.644H200.087C200.087 152.677 197.921 150.354 195.118 149.967C191.296 145.709 185.18 147.387 180.338 151.644C180.593 151.902 180.848 152.29 181.102 152.677C184.543 149.451 189.257 147.257 193.207 150.096Z" fill="#124C5F"/>
<path d="M212.574 180.675H176.771C175.751 180.675 174.859 181.578 174.859 182.611C174.859 183.643 175.751 184.546 176.771 184.546H177.153V187.772C177.153 192.804 181.23 196.932 186.199 196.932H203.4C208.369 196.932 212.446 192.804 212.446 187.772V184.546H212.828C213.848 184.546 214.74 183.643 214.74 182.611C214.485 181.449 213.593 180.675 212.574 180.675Z" fill="#124C5F"/>
<path d="M189.767 158.225L189.894 157.063C189.894 156.676 189.767 156.418 189.384 156.418C189.002 156.418 188.747 156.547 188.747 156.934L188.62 158.096C188.62 158.483 188.747 158.741 189.13 158.741C189.384 158.741 189.639 158.483 189.767 158.225Z" fill="#124C5F"/>
<path d="M188.238 159.773L188.11 160.934C188.11 161.321 188.238 161.579 188.62 161.579C189.002 161.579 189.257 161.45 189.257 161.063L189.384 159.902C189.384 159.515 189.257 159.257 188.875 159.257C188.62 159.257 188.365 159.515 188.238 159.773Z" fill="#124C5F"/>
<path d="M192.57 158.741C192.952 158.741 193.207 158.483 193.207 158.096V156.805C193.207 156.418 192.952 156.16 192.57 156.16C192.187 156.16 191.932 156.418 191.932 156.805V158.096C191.932 158.354 192.315 158.741 192.57 158.741Z" fill="#124C5F"/>
<path d="M191.805 161.063C191.805 161.45 192.06 161.708 192.442 161.708C192.824 161.708 193.079 161.45 193.079 161.063V159.773C193.079 159.386 192.824 159.128 192.442 159.128C192.06 159.128 191.805 159.386 191.805 159.773V161.063Z" fill="#124C5F"/>
<path d="M196.01 156.289C195.628 156.289 195.373 156.547 195.373 156.934V158.225C195.373 158.612 195.628 158.87 196.01 158.87C196.392 158.87 196.647 158.612 196.647 158.225V156.934C196.647 156.547 196.392 156.289 196.01 156.289Z" fill="#124C5F"/>
<path d="M195.628 159.902V161.192C195.628 161.579 195.883 161.837 196.265 161.837C196.647 161.837 196.902 161.579 196.902 161.192V159.902C196.902 159.515 196.647 159.257 196.265 159.257C195.755 159.257 195.5 159.515 195.628 159.902Z" fill="#124C5F"/>
<path d="M199.323 156.289C198.94 156.289 198.813 156.676 198.813 156.934L198.94 158.096C198.94 158.354 199.195 158.612 199.577 158.612C199.96 158.612 200.214 158.225 200.214 157.838L199.96 156.805C199.96 156.418 199.577 156.16 199.323 156.289Z" fill="#124C5F"/>
<path d="M199.195 160.031L199.323 161.192C199.323 161.45 199.705 161.708 199.96 161.708C200.342 161.708 200.597 161.321 200.469 161.063V159.773C200.469 159.386 200.087 159.257 199.832 159.257C199.45 159.386 199.195 159.644 199.195 160.031Z" fill="#124C5F"/>
<defs>
<filter id="filter0_d_27_1246" x="0" y="0.189819" width="348" height="372.81" filterUnits="userSpaceOnUse" color-interpolation-filters="sRGB">
<feFlood flood-opacity="0" result="BackgroundImageFix"/>
<feColorMatrix in="SourceAlpha" type="matrix" values="0 0 0 0 0 0 0 0 0 0 0 0 0 0 0 0 0 0 127 0" result="hardAlpha"/>
<feOffset dy="4"/>
<feGaussianBlur stdDeviation="37"/>
<feColorMatrix type="matrix" values="0 0 0 0 0.780392 0 0 0 0 0.905882 0 0 0 0 0.882353 0 0 0 0.27 0"/>
<feBlend mode="normal" in2="BackgroundImageFix" result="effect1_dropShadow_27_1246"/>
<feBlend mode="normal" in="SourceGraphic" in2="effect1_dropShadow_27_1246" result="shape"/>
</filter>
<linearGradient id="paint0_linear_27_1246" x1="174" y1="70.1898" x2="174" y2="295" gradientUnits="userSpaceOnUse">
<stop stop-color="#F9FFFE"/>
<stop offset="1" stop-color="white" stop-opacity="0"/>
</linearGradient>
</defs>
</svg>
