<svg width="348" height="373" viewBox="0 0 348 373" fill="none" xmlns="http://www.w3.org/2000/svg">
<g filter="url(#filter0_d_27_1265)">
<rect x="74" y="70.1898" width="200" height="224.81" rx="25" fill="url(#paint0_linear_27_1265)"/>
<rect x="74.5" y="70.6898" width="199" height="223.81" rx="24.5" stroke="#FFEE94"/>
</g>
<path d="M131.034 252.2C129.807 252.2 128.787 251.973 127.974 251.52C127.174 251.067 126.567 250.433 126.154 249.62C125.741 248.807 125.514 247.86 125.474 246.78C125.461 246.233 125.454 245.647 125.454 245.02C125.454 244.393 125.461 243.793 125.474 243.22C125.514 242.14 125.741 241.193 126.154 240.38C126.567 239.567 127.174 238.933 127.974 238.48C128.787 238.027 129.807 237.8 131.034 237.8C131.954 237.8 132.761 237.927 133.454 238.18C134.147 238.433 134.721 238.773 135.174 239.2C135.641 239.627 135.994 240.107 136.234 240.64C136.474 241.16 136.607 241.7 136.634 242.26C136.647 242.38 136.607 242.48 136.514 242.56C136.434 242.64 136.334 242.68 136.214 242.68H135.114C134.994 242.68 134.887 242.647 134.794 242.58C134.714 242.513 134.654 242.393 134.614 242.22C134.387 241.18 133.961 240.467 133.334 240.08C132.721 239.693 131.947 239.5 131.014 239.5C129.947 239.5 129.101 239.807 128.474 240.42C127.847 241.02 127.507 241.987 127.454 243.32C127.414 244.413 127.414 245.533 127.454 246.68C127.507 248.013 127.847 248.987 128.474 249.6C129.101 250.2 129.947 250.5 131.014 250.5C131.947 250.5 132.721 250.307 133.334 249.92C133.961 249.533 134.387 248.82 134.614 247.78C134.654 247.607 134.714 247.487 134.794 247.42C134.887 247.353 134.994 247.32 135.114 247.32H136.214C136.334 247.32 136.434 247.36 136.514 247.44C136.607 247.52 136.647 247.62 136.634 247.74C136.607 248.3 136.474 248.847 136.234 249.38C135.994 249.9 135.641 250.373 135.174 250.8C134.721 251.227 134.147 251.567 133.454 251.82C132.761 252.073 131.954 252.2 131.034 252.2ZM142.934 252.2C142.081 252.2 141.354 252.013 140.754 251.64C140.168 251.253 139.721 250.72 139.414 250.04C139.108 249.36 138.954 248.58 138.954 247.7V242.06C138.954 241.927 138.994 241.82 139.074 241.74C139.168 241.647 139.281 241.6 139.414 241.6H140.414C140.548 241.6 140.654 241.647 140.734 241.74C140.828 241.82 140.874 241.927 140.874 242.06V247.6C140.874 249.587 141.741 250.58 143.474 250.58C144.301 250.58 144.961 250.32 145.454 249.8C145.961 249.267 146.214 248.533 146.214 247.6V242.06C146.214 241.927 146.254 241.82 146.334 241.74C146.428 241.647 146.541 241.6 146.674 241.6H147.654C147.801 241.6 147.914 241.647 147.994 241.74C148.074 241.82 148.114 241.927 148.114 242.06V251.54C148.114 251.673 148.074 251.787 147.994 251.88C147.914 251.96 147.801 252 147.654 252H146.734C146.601 252 146.488 251.96 146.394 251.88C146.314 251.787 146.274 251.673 146.274 251.54V250.66C145.914 251.127 145.474 251.5 144.954 251.78C144.448 252.06 143.774 252.2 142.934 252.2ZM151.545 252C151.412 252 151.299 251.96 151.205 251.88C151.125 251.787 151.085 251.673 151.085 251.54V242.06C151.085 241.927 151.125 241.82 151.205 241.74C151.299 241.647 151.412 241.6 151.545 241.6H152.505C152.639 241.6 152.745 241.647 152.825 241.74C152.905 241.82 152.945 241.927 152.945 242.06V251.54C152.945 251.673 152.905 251.787 152.825 251.88C152.745 251.96 152.639 252 152.505 252H151.545ZM151.385 239.66C151.252 239.66 151.139 239.62 151.045 239.54C150.965 239.447 150.925 239.333 150.925 239.2V238.12C150.925 237.987 150.965 237.88 151.045 237.8C151.139 237.707 151.252 237.66 151.385 237.66H152.645C152.779 237.66 152.885 237.707 152.965 237.8C153.059 237.88 153.105 237.987 153.105 238.12V239.2C153.105 239.333 153.059 239.447 152.965 239.54C152.885 239.62 152.779 239.66 152.645 239.66H151.385ZM159.729 252.2C158.996 252.2 158.363 252.073 157.829 251.82C157.296 251.553 156.856 251.2 156.509 250.76C156.176 250.307 155.923 249.793 155.749 249.22C155.589 248.647 155.496 248.04 155.469 247.4C155.456 247.187 155.449 246.987 155.449 246.8C155.449 246.613 155.456 246.413 155.469 246.2C155.496 245.573 155.589 244.973 155.749 244.4C155.923 243.827 156.176 243.313 156.509 242.86C156.856 242.407 157.296 242.053 157.829 241.8C158.363 241.533 158.996 241.4 159.729 241.4C160.516 241.4 161.169 241.54 161.689 241.82C162.209 242.1 162.636 242.447 162.969 242.86V238.26C162.969 238.127 163.009 238.02 163.089 237.94C163.183 237.847 163.296 237.8 163.429 237.8H164.389C164.523 237.8 164.629 237.847 164.709 237.94C164.803 238.02 164.849 238.127 164.849 238.26V251.54C164.849 251.673 164.803 251.787 164.709 251.88C164.629 251.96 164.523 252 164.389 252H163.489C163.343 252 163.229 251.96 163.149 251.88C163.069 251.787 163.029 251.673 163.029 251.54V250.7C162.696 251.127 162.263 251.487 161.729 251.78C161.196 252.06 160.529 252.2 159.729 252.2ZM160.149 250.58C160.816 250.58 161.349 250.427 161.749 250.12C162.149 249.813 162.449 249.427 162.649 248.96C162.849 248.48 162.956 247.993 162.969 247.5C162.983 247.287 162.989 247.033 162.989 246.74C162.989 246.433 162.983 246.173 162.969 245.96C162.956 245.493 162.843 245.033 162.629 244.58C162.429 244.127 162.123 243.753 161.709 243.46C161.309 243.167 160.789 243.02 160.149 243.02C159.469 243.02 158.929 243.173 158.529 243.48C158.129 243.773 157.843 244.167 157.669 244.66C157.496 245.14 157.396 245.66 157.369 246.22C157.356 246.607 157.356 246.993 157.369 247.38C157.396 247.94 157.496 248.467 157.669 248.96C157.843 249.44 158.129 249.833 158.529 250.14C158.929 250.433 159.469 250.58 160.149 250.58ZM170.724 252.2C170.057 252.2 169.45 252.067 168.904 251.8C168.357 251.533 167.917 251.173 167.584 250.72C167.25 250.267 167.084 249.753 167.084 249.18C167.084 248.26 167.457 247.527 168.204 246.98C168.95 246.433 169.924 246.073 171.124 245.9L174.104 245.48V244.9C174.104 244.26 173.917 243.76 173.544 243.4C173.184 243.04 172.59 242.86 171.764 242.86C171.164 242.86 170.677 242.98 170.304 243.22C169.944 243.46 169.69 243.767 169.544 244.14C169.464 244.34 169.324 244.44 169.124 244.44H168.224C168.077 244.44 167.964 244.4 167.884 244.32C167.817 244.227 167.784 244.12 167.784 244C167.784 243.8 167.857 243.553 168.004 243.26C168.164 242.967 168.404 242.68 168.724 242.4C169.044 242.12 169.45 241.887 169.944 241.7C170.45 241.5 171.064 241.4 171.784 241.4C172.584 241.4 173.257 241.507 173.804 241.72C174.35 241.92 174.777 242.193 175.084 242.54C175.404 242.887 175.63 243.28 175.764 243.72C175.91 244.16 175.984 244.607 175.984 245.06V251.54C175.984 251.673 175.937 251.787 175.844 251.88C175.764 251.96 175.657 252 175.524 252H174.604C174.457 252 174.344 251.96 174.264 251.88C174.184 251.787 174.144 251.673 174.144 251.54V250.68C173.97 250.92 173.737 251.16 173.444 251.4C173.15 251.627 172.784 251.82 172.344 251.98C171.904 252.127 171.364 252.2 170.724 252.2ZM171.144 250.7C171.69 250.7 172.19 250.587 172.644 250.36C173.097 250.12 173.45 249.753 173.704 249.26C173.97 248.767 174.104 248.147 174.104 247.4V246.84L171.784 247.18C170.837 247.313 170.124 247.54 169.644 247.86C169.164 248.167 168.924 248.56 168.924 249.04C168.924 249.413 169.03 249.727 169.244 249.98C169.47 250.22 169.75 250.4 170.084 250.52C170.43 250.64 170.784 250.7 171.144 250.7ZM182.659 252.2C181.926 252.2 181.292 252.073 180.759 251.82C180.226 251.553 179.786 251.2 179.439 250.76C179.106 250.307 178.852 249.793 178.679 249.22C178.519 248.647 178.426 248.04 178.399 247.4C178.386 247.187 178.379 246.987 178.379 246.8C178.379 246.613 178.386 246.413 178.399 246.2C178.426 245.573 178.519 244.973 178.679 244.4C178.852 243.827 179.106 243.313 179.439 242.86C179.786 242.407 180.226 242.053 180.759 241.8C181.292 241.533 181.926 241.4 182.659 241.4C183.446 241.4 184.099 241.54 184.619 241.82C185.139 242.1 185.566 242.447 185.899 242.86V238.26C185.899 238.127 185.939 238.02 186.019 237.94C186.112 237.847 186.226 237.8 186.359 237.8H187.319C187.452 237.8 187.559 237.847 187.639 237.94C187.732 238.02 187.779 238.127 187.779 238.26V251.54C187.779 251.673 187.732 251.787 187.639 251.88C187.559 251.96 187.452 252 187.319 252H186.419C186.272 252 186.159 251.96 186.079 251.88C185.999 251.787 185.959 251.673 185.959 251.54V250.7C185.626 251.127 185.192 251.487 184.659 251.78C184.126 252.06 183.459 252.2 182.659 252.2ZM183.079 250.58C183.746 250.58 184.279 250.427 184.679 250.12C185.079 249.813 185.379 249.427 185.579 248.96C185.779 248.48 185.886 247.993 185.899 247.5C185.912 247.287 185.919 247.033 185.919 246.74C185.919 246.433 185.912 246.173 185.899 245.96C185.886 245.493 185.772 245.033 185.559 244.58C185.359 244.127 185.052 243.753 184.639 243.46C184.239 243.167 183.719 243.02 183.079 243.02C182.399 243.02 181.859 243.173 181.459 243.48C181.059 243.773 180.772 244.167 180.599 244.66C180.426 245.14 180.326 245.66 180.299 246.22C180.286 246.607 180.286 246.993 180.299 247.38C180.326 247.94 180.426 248.467 180.599 248.96C180.772 249.44 181.059 249.833 181.459 250.14C181.859 250.433 182.399 250.58 183.079 250.58ZM195.013 252.2C194 252.2 193.153 252.007 192.473 251.62C191.793 251.233 191.273 250.7 190.913 250.02C190.553 249.327 190.353 248.54 190.313 247.66C190.3 247.433 190.293 247.147 190.293 246.8C190.293 246.44 190.3 246.153 190.313 245.94C190.353 245.047 190.553 244.26 190.913 243.58C191.287 242.9 191.813 242.367 192.493 241.98C193.173 241.593 194.013 241.4 195.013 241.4C196.013 241.4 196.853 241.593 197.533 241.98C198.213 242.367 198.733 242.9 199.093 243.58C199.467 244.26 199.673 245.047 199.713 245.94C199.727 246.153 199.733 246.44 199.733 246.8C199.733 247.147 199.727 247.433 199.713 247.66C199.673 248.54 199.473 249.327 199.113 250.02C198.753 250.7 198.233 251.233 197.553 251.62C196.873 252.007 196.027 252.2 195.013 252.2ZM195.013 250.66C195.84 250.66 196.5 250.4 196.993 249.88C197.487 249.347 197.753 248.573 197.793 247.56C197.807 247.36 197.813 247.107 197.813 246.8C197.813 246.493 197.807 246.24 197.793 246.04C197.753 245.027 197.487 244.26 196.993 243.74C196.5 243.207 195.84 242.94 195.013 242.94C194.187 242.94 193.52 243.207 193.013 243.74C192.52 244.26 192.26 245.027 192.233 246.04C192.22 246.24 192.213 246.493 192.213 246.8C192.213 247.107 192.22 247.36 192.233 247.56C192.26 248.573 192.52 249.347 193.013 249.88C193.52 250.4 194.187 250.66 195.013 250.66ZM210.94 252.2C210.207 252.2 209.573 252.073 209.04 251.82C208.507 251.553 208.067 251.2 207.72 250.76C207.387 250.307 207.133 249.793 206.96 249.22C206.8 248.647 206.707 248.04 206.68 247.4C206.667 247.187 206.66 246.987 206.66 246.8C206.66 246.613 206.667 246.413 206.68 246.2C206.707 245.573 206.8 244.973 206.96 244.4C207.133 243.827 207.387 243.313 207.72 242.86C208.067 242.407 208.507 242.053 209.04 241.8C209.573 241.533 210.207 241.4 210.94 241.4C211.727 241.4 212.38 241.54 212.9 241.82C213.42 242.1 213.847 242.447 214.18 242.86V238.26C214.18 238.127 214.22 238.02 214.3 237.94C214.393 237.847 214.507 237.8 214.64 237.8H215.6C215.733 237.8 215.84 237.847 215.92 237.94C216.013 238.02 216.06 238.127 216.06 238.26V251.54C216.06 251.673 216.013 251.787 215.92 251.88C215.84 251.96 215.733 252 215.6 252H214.7C214.553 252 214.44 251.96 214.36 251.88C214.28 251.787 214.24 251.673 214.24 251.54V250.7C213.907 251.127 213.473 251.487 212.94 251.78C212.407 252.06 211.74 252.2 210.94 252.2ZM211.36 250.58C212.027 250.58 212.56 250.427 212.96 250.12C213.36 249.813 213.66 249.427 213.86 248.96C214.06 248.48 214.167 247.993 214.18 247.5C214.193 247.287 214.2 247.033 214.2 246.74C214.2 246.433 214.193 246.173 214.18 245.96C214.167 245.493 214.053 245.033 213.84 244.58C213.64 244.127 213.333 243.753 212.92 243.46C212.52 243.167 212 243.02 211.36 243.02C210.68 243.02 210.14 243.173 209.74 243.48C209.34 243.773 209.053 244.167 208.88 244.66C208.707 245.14 208.607 245.66 208.58 246.22C208.567 246.607 208.567 246.993 208.58 247.38C208.607 247.94 208.707 248.467 208.88 248.96C209.053 249.44 209.34 249.833 209.74 250.14C210.14 250.433 210.68 250.58 211.36 250.58ZM223.175 252.2C221.801 252.2 220.708 251.78 219.895 250.94C219.081 250.087 218.635 248.927 218.555 247.46C218.541 247.287 218.535 247.067 218.535 246.8C218.535 246.52 218.541 246.293 218.555 246.12C218.608 245.173 218.828 244.347 219.215 243.64C219.601 242.92 220.128 242.367 220.795 241.98C221.475 241.593 222.268 241.4 223.175 241.4C224.188 241.4 225.035 241.613 225.715 242.04C226.408 242.467 226.935 243.073 227.295 243.86C227.655 244.647 227.835 245.567 227.835 246.62V246.96C227.835 247.107 227.788 247.22 227.695 247.3C227.615 247.38 227.508 247.42 227.375 247.42H220.455C220.455 247.433 220.455 247.46 220.455 247.5C220.455 247.54 220.455 247.573 220.455 247.6C220.481 248.147 220.601 248.66 220.815 249.14C221.028 249.607 221.335 249.987 221.735 250.28C222.135 250.573 222.615 250.72 223.175 250.72C223.655 250.72 224.055 250.647 224.375 250.5C224.695 250.353 224.955 250.193 225.155 250.02C225.355 249.833 225.488 249.693 225.555 249.6C225.675 249.427 225.768 249.327 225.835 249.3C225.901 249.26 226.008 249.24 226.155 249.24H227.115C227.248 249.24 227.355 249.28 227.435 249.36C227.528 249.427 227.568 249.527 227.555 249.66C227.541 249.86 227.435 250.107 227.235 250.4C227.035 250.68 226.748 250.96 226.375 251.24C226.001 251.52 225.548 251.753 225.015 251.94C224.481 252.113 223.868 252.2 223.175 252.2ZM220.455 246.04H225.935V245.98C225.935 245.38 225.821 244.847 225.595 244.38C225.381 243.913 225.068 243.547 224.655 243.28C224.241 243 223.748 242.86 223.175 242.86C222.601 242.86 222.108 243 221.695 243.28C221.295 243.547 220.988 243.913 220.775 244.38C220.561 244.847 220.455 245.38 220.455 245.98V246.04ZM143.05 276C142.917 276 142.803 275.96 142.71 275.88C142.63 275.787 142.59 275.673 142.59 275.54V262.26C142.59 262.127 142.63 262.02 142.71 261.94C142.803 261.847 142.917 261.8 143.05 261.8H143.99C144.137 261.8 144.25 261.847 144.33 261.94C144.41 262.02 144.45 262.127 144.45 262.26V275.54C144.45 275.673 144.41 275.787 144.33 275.88C144.25 275.96 144.137 276 143.99 276H143.05ZM150.333 276.2C149.666 276.2 149.06 276.067 148.513 275.8C147.966 275.533 147.526 275.173 147.193 274.72C146.86 274.267 146.693 273.753 146.693 273.18C146.693 272.26 147.066 271.527 147.813 270.98C148.56 270.433 149.533 270.073 150.733 269.9L153.713 269.48V268.9C153.713 268.26 153.526 267.76 153.153 267.4C152.793 267.04 152.2 266.86 151.373 266.86C150.773 266.86 150.286 266.98 149.913 267.22C149.553 267.46 149.3 267.767 149.153 268.14C149.073 268.34 148.933 268.44 148.733 268.44H147.833C147.686 268.44 147.573 268.4 147.493 268.32C147.426 268.227 147.393 268.12 147.393 268C147.393 267.8 147.466 267.553 147.613 267.26C147.773 266.967 148.013 266.68 148.333 266.4C148.653 266.12 149.06 265.887 149.553 265.7C150.06 265.5 150.673 265.4 151.393 265.4C152.193 265.4 152.866 265.507 153.413 265.72C153.96 265.92 154.386 266.193 154.693 266.54C155.013 266.887 155.24 267.28 155.373 267.72C155.52 268.16 155.593 268.607 155.593 269.06V275.54C155.593 275.673 155.546 275.787 155.453 275.88C155.373 275.96 155.266 276 155.133 276H154.213C154.066 276 153.953 275.96 153.873 275.88C153.793 275.787 153.753 275.673 153.753 275.54V274.68C153.58 274.92 153.346 275.16 153.053 275.4C152.76 275.627 152.393 275.82 151.953 275.98C151.513 276.127 150.973 276.2 150.333 276.2ZM150.753 274.7C151.3 274.7 151.8 274.587 152.253 274.36C152.706 274.12 153.06 273.753 153.313 273.26C153.58 272.767 153.713 272.147 153.713 271.4V270.84L151.393 271.18C150.446 271.313 149.733 271.54 149.253 271.86C148.773 272.167 148.533 272.56 148.533 273.04C148.533 273.413 148.64 273.727 148.853 273.98C149.08 274.22 149.36 274.4 149.693 274.52C150.04 274.64 150.393 274.7 150.753 274.7ZM166.971 276.2C166.224 276.2 165.584 276.107 165.051 275.92C164.517 275.733 164.084 275.507 163.751 275.24C163.417 274.973 163.164 274.707 162.991 274.44C162.831 274.173 162.744 273.96 162.731 273.8C162.717 273.653 162.764 273.54 162.871 273.46C162.977 273.38 163.084 273.34 163.191 273.34H164.071C164.151 273.34 164.211 273.353 164.251 273.38C164.304 273.393 164.371 273.447 164.451 273.54C164.624 273.727 164.817 273.913 165.031 274.1C165.244 274.287 165.504 274.44 165.811 274.56C166.131 274.68 166.524 274.74 166.991 274.74C167.671 274.74 168.231 274.613 168.671 274.36C169.111 274.093 169.331 273.707 169.331 273.2C169.331 272.867 169.237 272.6 169.051 272.4C168.877 272.2 168.557 272.02 168.091 271.86C167.637 271.7 167.011 271.533 166.211 271.36C165.411 271.173 164.777 270.947 164.311 270.68C163.844 270.4 163.511 270.073 163.311 269.7C163.111 269.313 163.011 268.88 163.011 268.4C163.011 267.907 163.157 267.433 163.451 266.98C163.744 266.513 164.171 266.133 164.731 265.84C165.304 265.547 166.017 265.4 166.871 265.4C167.564 265.4 168.157 265.487 168.651 265.66C169.144 265.833 169.551 266.053 169.871 266.32C170.191 266.573 170.431 266.827 170.591 267.08C170.751 267.333 170.837 267.547 170.851 267.72C170.864 267.853 170.824 267.967 170.731 268.06C170.637 268.14 170.531 268.18 170.411 268.18H169.571C169.477 268.18 169.397 268.16 169.331 268.12C169.277 268.08 169.224 268.033 169.171 267.98C169.037 267.807 168.877 267.633 168.691 267.46C168.517 267.287 168.284 267.147 167.991 267.04C167.711 266.92 167.337 266.86 166.871 266.86C166.204 266.86 165.704 267 165.371 267.28C165.037 267.56 164.871 267.913 164.871 268.34C164.871 268.593 164.944 268.82 165.091 269.02C165.237 269.22 165.517 269.4 165.931 269.56C166.344 269.72 166.957 269.893 167.771 270.08C168.651 270.253 169.344 270.487 169.851 270.78C170.357 271.073 170.717 271.413 170.931 271.8C171.144 272.187 171.251 272.633 171.251 273.14C171.251 273.7 171.084 274.213 170.751 274.68C170.431 275.147 169.951 275.52 169.311 275.8C168.684 276.067 167.904 276.2 166.971 276.2ZM176.466 276.2C175.799 276.2 175.193 276.067 174.646 275.8C174.099 275.533 173.659 275.173 173.326 274.72C172.993 274.267 172.826 273.753 172.826 273.18C172.826 272.26 173.199 271.527 173.946 270.98C174.693 270.433 175.666 270.073 176.866 269.9L179.846 269.48V268.9C179.846 268.26 179.659 267.76 179.286 267.4C178.926 267.04 178.333 266.86 177.506 266.86C176.906 266.86 176.419 266.98 176.046 267.22C175.686 267.46 175.433 267.767 175.286 268.14C175.206 268.34 175.066 268.44 174.866 268.44H173.966C173.819 268.44 173.706 268.4 173.626 268.32C173.559 268.227 173.526 268.12 173.526 268C173.526 267.8 173.599 267.553 173.746 267.26C173.906 266.967 174.146 266.68 174.466 266.4C174.786 266.12 175.193 265.887 175.686 265.7C176.193 265.5 176.806 265.4 177.526 265.4C178.326 265.4 178.999 265.507 179.546 265.72C180.093 265.92 180.519 266.193 180.826 266.54C181.146 266.887 181.373 267.28 181.506 267.72C181.653 268.16 181.726 268.607 181.726 269.06V275.54C181.726 275.673 181.679 275.787 181.586 275.88C181.506 275.96 181.399 276 181.266 276H180.346C180.199 276 180.086 275.96 180.006 275.88C179.926 275.787 179.886 275.673 179.886 275.54V274.68C179.713 274.92 179.479 275.16 179.186 275.4C178.893 275.627 178.526 275.82 178.086 275.98C177.646 276.127 177.106 276.2 176.466 276.2ZM176.886 274.7C177.433 274.7 177.933 274.587 178.386 274.36C178.839 274.12 179.193 273.753 179.446 273.26C179.713 272.767 179.846 272.147 179.846 271.4V270.84L177.526 271.18C176.579 271.313 175.866 271.54 175.386 271.86C174.906 272.167 174.666 272.56 174.666 273.04C174.666 273.413 174.773 273.727 174.986 273.98C175.213 274.22 175.493 274.4 175.826 274.52C176.173 274.64 176.526 274.7 176.886 274.7ZM185.081 276C184.948 276 184.834 275.96 184.741 275.88C184.661 275.787 184.621 275.673 184.621 275.54V262.26C184.621 262.127 184.661 262.02 184.741 261.94C184.834 261.847 184.948 261.8 185.081 261.8H186.021C186.168 261.8 186.281 261.847 186.361 261.94C186.441 262.02 186.481 262.127 186.481 262.26V275.54C186.481 275.673 186.441 275.787 186.361 275.88C186.281 275.96 186.168 276 186.021 276H185.081ZM193.344 276.2C192.491 276.2 191.764 276.013 191.164 275.64C190.578 275.253 190.131 274.72 189.824 274.04C189.518 273.36 189.364 272.58 189.364 271.7V266.06C189.364 265.927 189.404 265.82 189.484 265.74C189.578 265.647 189.691 265.6 189.824 265.6H190.824C190.958 265.6 191.064 265.647 191.144 265.74C191.238 265.82 191.284 265.927 191.284 266.06V271.6C191.284 273.587 192.151 274.58 193.884 274.58C194.711 274.58 195.371 274.32 195.864 273.8C196.371 273.267 196.624 272.533 196.624 271.6V266.06C196.624 265.927 196.664 265.82 196.744 265.74C196.838 265.647 196.951 265.6 197.084 265.6H198.064C198.211 265.6 198.324 265.647 198.404 265.74C198.484 265.82 198.524 265.927 198.524 266.06V275.54C198.524 275.673 198.484 275.787 198.404 275.88C198.324 275.96 198.211 276 198.064 276H197.144C197.011 276 196.898 275.96 196.804 275.88C196.724 275.787 196.684 275.673 196.684 275.54V274.66C196.324 275.127 195.884 275.5 195.364 275.78C194.858 276.06 194.184 276.2 193.344 276.2ZM205.296 276.2C204.562 276.2 203.929 276.073 203.396 275.82C202.862 275.553 202.422 275.2 202.076 274.76C201.742 274.307 201.489 273.793 201.316 273.22C201.156 272.647 201.062 272.04 201.036 271.4C201.022 271.187 201.016 270.987 201.016 270.8C201.016 270.613 201.022 270.413 201.036 270.2C201.062 269.573 201.156 268.973 201.316 268.4C201.489 267.827 201.742 267.313 202.076 266.86C202.422 266.407 202.862 266.053 203.396 265.8C203.929 265.533 204.562 265.4 205.296 265.4C206.082 265.4 206.736 265.54 207.256 265.82C207.776 266.1 208.202 266.447 208.536 266.86V262.26C208.536 262.127 208.576 262.02 208.656 261.94C208.749 261.847 208.862 261.8 208.996 261.8H209.956C210.089 261.8 210.196 261.847 210.276 261.94C210.369 262.02 210.416 262.127 210.416 262.26V275.54C210.416 275.673 210.369 275.787 210.276 275.88C210.196 275.96 210.089 276 209.956 276H209.056C208.909 276 208.796 275.96 208.716 275.88C208.636 275.787 208.596 275.673 208.596 275.54V274.7C208.262 275.127 207.829 275.487 207.296 275.78C206.762 276.06 206.096 276.2 205.296 276.2ZM205.716 274.58C206.382 274.58 206.916 274.427 207.316 274.12C207.716 273.813 208.016 273.427 208.216 272.96C208.416 272.48 208.522 271.993 208.536 271.5C208.549 271.287 208.556 271.033 208.556 270.74C208.556 270.433 208.549 270.173 208.536 269.96C208.522 269.493 208.409 269.033 208.196 268.58C207.996 268.127 207.689 267.753 207.276 267.46C206.876 267.167 206.356 267.02 205.716 267.02C205.036 267.02 204.496 267.173 204.096 267.48C203.696 267.773 203.409 268.167 203.236 268.66C203.062 269.14 202.962 269.66 202.936 270.22C202.922 270.607 202.922 270.993 202.936 271.38C202.962 271.94 203.062 272.467 203.236 272.96C203.409 273.44 203.696 273.833 204.096 274.14C204.496 274.433 205.036 274.58 205.716 274.58Z" fill="black"/>
<path d="M187.878 165.919L193.922 159.799C194.64 160.037 195.393 160.199 196.191 160.199H198.644C202.708 160.199 206.002 156.863 206.002 152.747C206.002 148.631 202.708 145.295 198.644 145.295H197.839V144.477C197.839 140.361 194.545 137.025 190.48 137.025C186.416 137.025 183.121 140.361 183.121 144.477V146.961C183.121 147.769 183.281 148.531 183.516 149.259L177.472 155.38L187.878 165.919Z" fill="#124C5F"/>
<path d="M160.125 172.944L154.081 179.064C153.362 178.826 152.609 178.664 151.812 178.664H149.359C145.294 178.664 142 182 142 186.116C142 190.232 145.294 193.568 149.359 193.568H150.163V194.383C150.163 198.499 153.458 201.835 157.522 201.835C161.587 201.835 164.881 198.499 164.881 194.383V191.899C164.881 191.092 164.722 190.329 164.486 189.601L170.53 183.481L160.125 172.944Z" fill="#124C5F"/>
<path d="M198.644 178.665H196.191C195.393 178.665 194.64 178.826 193.922 179.065L164.489 149.259C164.724 148.531 164.884 147.769 164.884 146.961V144.477C164.884 140.361 161.589 137.025 157.525 137.025C153.46 137.025 150.166 140.361 150.166 144.477V145.292H149.359C145.294 145.292 142 148.628 142 152.744C142 156.86 145.294 160.196 149.359 160.196H151.812C152.609 160.196 153.362 160.035 154.081 159.796L183.514 189.602C183.278 190.329 183.119 191.092 183.119 191.899V194.383C183.119 198.499 186.413 201.835 190.478 201.835C194.542 201.835 197.837 198.499 197.837 194.383V193.569H198.641C202.706 193.569 206 190.233 206 186.117C206 182.001 202.708 178.665 198.644 178.665Z" fill="#124C5F"/>
<defs>
<filter id="filter0_d_27_1265" x="0" y="0.189819" width="348" height="372.81" filterUnits="userSpaceOnUse" color-interpolation-filters="sRGB">
<feFlood flood-opacity="0" result="BackgroundImageFix"/>
<feColorMatrix in="SourceAlpha" type="matrix" values="0 0 0 0 0 0 0 0 0 0 0 0 0 0 0 0 0 0 127 0" result="hardAlpha"/>
<feOffset dy="4"/>
<feGaussianBlur stdDeviation="37"/>
<feColorMatrix type="matrix" values="0 0 0 0 0.780392 0 0 0 0 0.905882 0 0 0 0 0.882353 0 0 0 0.27 0"/>
<feBlend mode="normal" in2="BackgroundImageFix" result="effect1_dropShadow_27_1265"/>
<feBlend mode="normal" in="SourceGraphic" in2="effect1_dropShadow_27_1265" result="shape"/>
</filter>
<linearGradient id="paint0_linear_27_1265" x1="174" y1="70.1898" x2="174" y2="295" gradientUnits="userSpaceOnUse">
<stop stop-color="#FFFAE0"/>
<stop offset="1" stop-color="white" stop-opacity="0"/>
</linearGradient>
</defs>
</svg>
