<svg width="348" height="373" viewBox="0 0 348 373" fill="none" xmlns="http://www.w3.org/2000/svg">
<g filter="url(#filter0_d_27_1283)">
<rect x="74" y="70.1898" width="200" height="224.81" rx="25" fill="url(#paint0_linear_27_1283)"/>
<rect x="74.5" y="70.6898" width="199" height="223.81" rx="24.5" stroke="#FFEE94"/>
</g>
<path d="M109.305 252C109.159 252 109.045 251.96 108.965 251.88C108.885 251.787 108.845 251.673 108.845 251.54V238.48C108.845 238.333 108.885 238.22 108.965 238.14C109.045 238.047 109.159 238 109.305 238H117.565C117.712 238 117.825 238.047 117.905 238.14C117.985 238.22 118.025 238.333 118.025 238.48V239.24C118.025 239.387 117.985 239.5 117.905 239.58C117.825 239.66 117.712 239.7 117.565 239.7H110.765V244.08H117.125C117.272 244.08 117.385 244.127 117.465 244.22C117.545 244.3 117.585 244.413 117.585 244.56V245.3C117.585 245.433 117.545 245.547 117.465 245.64C117.385 245.72 117.272 245.76 117.125 245.76H110.765V250.3H117.725C117.872 250.3 117.985 250.34 118.065 250.42C118.145 250.5 118.185 250.613 118.185 250.76V251.54C118.185 251.673 118.145 251.787 118.065 251.88C117.985 251.96 117.872 252 117.725 252H109.305ZM121.174 252C121.041 252 120.928 251.96 120.834 251.88C120.754 251.787 120.714 251.673 120.714 251.54V242.06C120.714 241.927 120.754 241.82 120.834 241.74C120.928 241.647 121.041 241.6 121.174 241.6H122.114C122.248 241.6 122.354 241.647 122.434 241.74C122.528 241.82 122.574 241.927 122.574 242.06V242.94C122.921 242.487 123.354 242.12 123.874 241.84C124.408 241.547 125.088 241.4 125.914 241.4C126.781 241.4 127.514 241.593 128.114 241.98C128.728 242.353 129.188 242.88 129.494 243.56C129.801 244.227 129.954 245.007 129.954 245.9V251.54C129.954 251.673 129.914 251.787 129.834 251.88C129.754 251.96 129.648 252 129.514 252H128.514C128.381 252 128.268 251.96 128.174 251.88C128.094 251.787 128.054 251.673 128.054 251.54V246C128.054 245.067 127.828 244.34 127.374 243.82C126.921 243.287 126.254 243.02 125.374 243.02C124.548 243.02 123.881 243.287 123.374 243.82C122.881 244.34 122.634 245.067 122.634 246V251.54C122.634 251.673 122.588 251.787 122.494 251.88C122.414 251.96 122.308 252 122.174 252H121.174ZM136.767 252C136.02 252 135.413 251.86 134.947 251.58C134.48 251.287 134.14 250.88 133.927 250.36C133.713 249.827 133.607 249.2 133.607 248.48V243.2H132.047C131.913 243.2 131.8 243.16 131.707 243.08C131.627 242.987 131.587 242.873 131.587 242.74V242.06C131.587 241.927 131.627 241.82 131.707 241.74C131.8 241.647 131.913 241.6 132.047 241.6H133.607V238.26C133.607 238.127 133.647 238.02 133.727 237.94C133.82 237.847 133.933 237.8 134.067 237.8H135.007C135.14 237.8 135.247 237.847 135.327 237.94C135.42 238.02 135.467 238.127 135.467 238.26V241.6H137.947C138.08 241.6 138.187 241.647 138.267 241.74C138.36 241.82 138.407 241.927 138.407 242.06V242.74C138.407 242.873 138.36 242.987 138.267 243.08C138.187 243.16 138.08 243.2 137.947 243.2H135.467V248.34C135.467 248.967 135.573 249.46 135.787 249.82C136 250.18 136.38 250.36 136.927 250.36H138.147C138.28 250.36 138.387 250.407 138.467 250.5C138.56 250.58 138.607 250.687 138.607 250.82V251.54C138.607 251.673 138.56 251.787 138.467 251.88C138.387 251.96 138.28 252 138.147 252H136.767ZM140.979 252C140.846 252 140.732 251.96 140.639 251.88C140.559 251.787 140.519 251.673 140.519 251.54V242.08C140.519 241.947 140.559 241.833 140.639 241.74C140.732 241.647 140.846 241.6 140.979 241.6H141.899C142.032 241.6 142.146 241.647 142.239 241.74C142.332 241.833 142.379 241.947 142.379 242.08V242.96C142.646 242.507 143.012 242.167 143.479 241.94C143.946 241.713 144.506 241.6 145.159 241.6H145.959C146.092 241.6 146.199 241.647 146.279 241.74C146.359 241.82 146.399 241.927 146.399 242.06V242.88C146.399 243.013 146.359 243.12 146.279 243.2C146.199 243.28 146.092 243.32 145.959 243.32H144.759C144.039 243.32 143.472 243.533 143.059 243.96C142.646 244.373 142.439 244.94 142.439 245.66V251.54C142.439 251.673 142.392 251.787 142.299 251.88C142.206 251.96 142.092 252 141.959 252H140.979ZM152.061 252.2C150.688 252.2 149.595 251.78 148.781 250.94C147.968 250.087 147.521 248.927 147.441 247.46C147.428 247.287 147.421 247.067 147.421 246.8C147.421 246.52 147.428 246.293 147.441 246.12C147.495 245.173 147.715 244.347 148.101 243.64C148.488 242.92 149.015 242.367 149.681 241.98C150.361 241.593 151.155 241.4 152.061 241.4C153.075 241.4 153.921 241.613 154.601 242.04C155.295 242.467 155.821 243.073 156.181 243.86C156.541 244.647 156.721 245.567 156.721 246.62V246.96C156.721 247.107 156.675 247.22 156.581 247.3C156.501 247.38 156.395 247.42 156.261 247.42H149.341C149.341 247.433 149.341 247.46 149.341 247.5C149.341 247.54 149.341 247.573 149.341 247.6C149.368 248.147 149.488 248.66 149.701 249.14C149.915 249.607 150.221 249.987 150.621 250.28C151.021 250.573 151.501 250.72 152.061 250.72C152.541 250.72 152.941 250.647 153.261 250.5C153.581 250.353 153.841 250.193 154.041 250.02C154.241 249.833 154.375 249.693 154.441 249.6C154.561 249.427 154.655 249.327 154.721 249.3C154.788 249.26 154.895 249.24 155.041 249.24H156.001C156.135 249.24 156.241 249.28 156.321 249.36C156.415 249.427 156.455 249.527 156.441 249.66C156.428 249.86 156.321 250.107 156.121 250.4C155.921 250.68 155.635 250.96 155.261 251.24C154.888 251.52 154.435 251.753 153.901 251.94C153.368 252.113 152.755 252.2 152.061 252.2ZM149.341 246.04H154.821V245.98C154.821 245.38 154.708 244.847 154.481 244.38C154.268 243.913 153.955 243.547 153.541 243.28C153.128 243 152.635 242.86 152.061 242.86C151.488 242.86 150.995 243 150.581 243.28C150.181 243.547 149.875 243.913 149.661 244.38C149.448 244.847 149.341 245.38 149.341 245.98V246.04ZM159.573 252C159.439 252 159.326 251.96 159.233 251.88C159.153 251.787 159.113 251.673 159.113 251.54V242.06C159.113 241.927 159.153 241.82 159.233 241.74C159.326 241.647 159.439 241.6 159.573 241.6H160.513C160.646 241.6 160.753 241.647 160.833 241.74C160.926 241.82 160.973 241.927 160.973 242.06V242.94C161.319 242.487 161.753 242.12 162.273 241.84C162.806 241.547 163.486 241.4 164.313 241.4C165.179 241.4 165.913 241.593 166.513 241.98C167.126 242.353 167.586 242.88 167.893 243.56C168.199 244.227 168.353 245.007 168.353 245.9V251.54C168.353 251.673 168.313 251.787 168.233 251.88C168.153 251.96 168.046 252 167.913 252H166.913C166.779 252 166.666 251.96 166.573 251.88C166.493 251.787 166.453 251.673 166.453 251.54V246C166.453 245.067 166.226 244.34 165.773 243.82C165.319 243.287 164.653 243.02 163.773 243.02C162.946 243.02 162.279 243.287 161.773 243.82C161.279 244.34 161.033 245.067 161.033 246V251.54C161.033 251.673 160.986 251.787 160.893 251.88C160.813 251.96 160.706 252 160.573 252H159.573ZM174.142 252.2C173.475 252.2 172.868 252.067 172.322 251.8C171.775 251.533 171.335 251.173 171.002 250.72C170.668 250.267 170.502 249.753 170.502 249.18C170.502 248.26 170.875 247.527 171.622 246.98C172.368 246.433 173.342 246.073 174.542 245.9L177.522 245.48V244.9C177.522 244.26 177.335 243.76 176.962 243.4C176.602 243.04 176.008 242.86 175.182 242.86C174.582 242.86 174.095 242.98 173.722 243.22C173.362 243.46 173.108 243.767 172.962 244.14C172.882 244.34 172.742 244.44 172.542 244.44H171.642C171.495 244.44 171.382 244.4 171.302 244.32C171.235 244.227 171.202 244.12 171.202 244C171.202 243.8 171.275 243.553 171.422 243.26C171.582 242.967 171.822 242.68 172.142 242.4C172.462 242.12 172.868 241.887 173.362 241.7C173.868 241.5 174.482 241.4 175.202 241.4C176.002 241.4 176.675 241.507 177.222 241.72C177.768 241.92 178.195 242.193 178.502 242.54C178.822 242.887 179.048 243.28 179.182 243.72C179.328 244.16 179.402 244.607 179.402 245.06V251.54C179.402 251.673 179.355 251.787 179.262 251.88C179.182 251.96 179.075 252 178.942 252H178.022C177.875 252 177.762 251.96 177.682 251.88C177.602 251.787 177.562 251.673 177.562 251.54V250.68C177.388 250.92 177.155 251.16 176.862 251.4C176.568 251.627 176.202 251.82 175.762 251.98C175.322 252.127 174.782 252.2 174.142 252.2ZM174.562 250.7C175.108 250.7 175.608 250.587 176.062 250.36C176.515 250.12 176.868 249.753 177.122 249.26C177.388 248.767 177.522 248.147 177.522 247.4V246.84L175.202 247.18C174.255 247.313 173.542 247.54 173.062 247.86C172.582 248.167 172.342 248.56 172.342 249.04C172.342 249.413 172.448 249.727 172.662 249.98C172.888 250.22 173.168 250.4 173.502 250.52C173.848 250.64 174.202 250.7 174.562 250.7ZM182.737 252C182.604 252 182.49 251.96 182.397 251.88C182.317 251.787 182.277 251.673 182.277 251.54V242.06C182.277 241.927 182.317 241.82 182.397 241.74C182.49 241.647 182.604 241.6 182.737 241.6H183.637C183.77 241.6 183.877 241.647 183.957 241.74C184.05 241.82 184.097 241.927 184.097 242.06V242.76C184.404 242.347 184.79 242.02 185.257 241.78C185.724 241.527 186.284 241.4 186.937 241.4C188.444 241.387 189.51 242 190.137 243.24C190.444 242.68 190.89 242.233 191.477 241.9C192.064 241.567 192.73 241.4 193.477 241.4C194.17 241.4 194.797 241.56 195.357 241.88C195.93 242.2 196.377 242.687 196.697 243.34C197.03 243.98 197.197 244.787 197.197 245.76V251.54C197.197 251.673 197.15 251.787 197.057 251.88C196.977 251.96 196.87 252 196.737 252H195.797C195.664 252 195.55 251.96 195.457 251.88C195.377 251.787 195.337 251.673 195.337 251.54V245.94C195.337 245.193 195.23 244.607 195.017 244.18C194.804 243.753 194.517 243.453 194.157 243.28C193.797 243.107 193.404 243.02 192.977 243.02C192.63 243.02 192.277 243.107 191.917 243.28C191.557 243.453 191.257 243.753 191.017 244.18C190.79 244.607 190.677 245.193 190.677 245.94V251.54C190.677 251.673 190.63 251.787 190.537 251.88C190.457 251.96 190.35 252 190.217 252H189.277C189.144 252 189.03 251.96 188.937 251.88C188.857 251.787 188.817 251.673 188.817 251.54V245.94C188.817 245.193 188.704 244.607 188.477 244.18C188.25 243.753 187.957 243.453 187.597 243.28C187.237 243.107 186.857 243.02 186.457 243.02C186.11 243.02 185.757 243.107 185.397 243.28C185.037 243.453 184.737 243.753 184.497 244.18C184.27 244.607 184.157 245.187 184.157 245.92V251.54C184.157 251.673 184.11 251.787 184.017 251.88C183.937 251.96 183.83 252 183.697 252H182.737ZM200.51 252C200.377 252 200.264 251.96 200.17 251.88C200.09 251.787 200.05 251.673 200.05 251.54V242.06C200.05 241.927 200.09 241.82 200.17 241.74C200.264 241.647 200.377 241.6 200.51 241.6H201.47C201.604 241.6 201.71 241.647 201.79 241.74C201.87 241.82 201.91 241.927 201.91 242.06V251.54C201.91 251.673 201.87 251.787 201.79 251.88C201.71 251.96 201.604 252 201.47 252H200.51ZM200.35 239.66C200.217 239.66 200.104 239.62 200.01 239.54C199.93 239.447 199.89 239.333 199.89 239.2V238.12C199.89 237.987 199.93 237.88 200.01 237.8C200.104 237.707 200.217 237.66 200.35 237.66H201.61C201.744 237.66 201.85 237.707 201.93 237.8C202.024 237.88 202.07 237.987 202.07 238.12V239.2C202.07 239.333 202.024 239.447 201.93 239.54C201.85 239.62 201.744 239.66 201.61 239.66H200.35ZM209.034 252.2C207.661 252.2 206.567 251.78 205.754 250.94C204.941 250.087 204.494 248.927 204.414 247.46C204.401 247.287 204.394 247.067 204.394 246.8C204.394 246.52 204.401 246.293 204.414 246.12C204.467 245.173 204.687 244.347 205.074 243.64C205.461 242.92 205.987 242.367 206.654 241.98C207.334 241.593 208.127 241.4 209.034 241.4C210.047 241.4 210.894 241.613 211.574 242.04C212.267 242.467 212.794 243.073 213.154 243.86C213.514 244.647 213.694 245.567 213.694 246.62V246.96C213.694 247.107 213.647 247.22 213.554 247.3C213.474 247.38 213.367 247.42 213.234 247.42H206.314C206.314 247.433 206.314 247.46 206.314 247.5C206.314 247.54 206.314 247.573 206.314 247.6C206.341 248.147 206.461 248.66 206.674 249.14C206.887 249.607 207.194 249.987 207.594 250.28C207.994 250.573 208.474 250.72 209.034 250.72C209.514 250.72 209.914 250.647 210.234 250.5C210.554 250.353 210.814 250.193 211.014 250.02C211.214 249.833 211.347 249.693 211.414 249.6C211.534 249.427 211.627 249.327 211.694 249.3C211.761 249.26 211.867 249.24 212.014 249.24H212.974C213.107 249.24 213.214 249.28 213.294 249.36C213.387 249.427 213.427 249.527 213.414 249.66C213.401 249.86 213.294 250.107 213.094 250.4C212.894 250.68 212.607 250.96 212.234 251.24C211.861 251.52 211.407 251.753 210.874 251.94C210.341 252.113 209.727 252.2 209.034 252.2ZM206.314 246.04H211.794V245.98C211.794 245.38 211.681 244.847 211.454 244.38C211.241 243.913 210.927 243.547 210.514 243.28C210.101 243 209.607 242.86 209.034 242.86C208.461 242.86 207.967 243 207.554 243.28C207.154 243.547 206.847 243.913 206.634 244.38C206.421 244.847 206.314 245.38 206.314 245.98V246.04ZM216.545 252C216.412 252 216.299 251.96 216.205 251.88C216.125 251.787 216.085 251.673 216.085 251.54V242.06C216.085 241.927 216.125 241.82 216.205 241.74C216.299 241.647 216.412 241.6 216.545 241.6H217.485C217.619 241.6 217.725 241.647 217.805 241.74C217.899 241.82 217.945 241.927 217.945 242.06V242.94C218.292 242.487 218.725 242.12 219.245 241.84C219.779 241.547 220.459 241.4 221.285 241.4C222.152 241.4 222.885 241.593 223.485 241.98C224.099 242.353 224.559 242.88 224.865 243.56C225.172 244.227 225.325 245.007 225.325 245.9V251.54C225.325 251.673 225.285 251.787 225.205 251.88C225.125 251.96 225.019 252 224.885 252H223.885C223.752 252 223.639 251.96 223.545 251.88C223.465 251.787 223.425 251.673 223.425 251.54V246C223.425 245.067 223.199 244.34 222.745 243.82C222.292 243.287 221.625 243.02 220.745 243.02C219.919 243.02 219.252 243.287 218.745 243.82C218.252 244.34 218.005 245.067 218.005 246V251.54C218.005 251.673 217.959 251.787 217.865 251.88C217.785 251.96 217.679 252 217.545 252H216.545ZM232.138 252C231.391 252 230.784 251.86 230.318 251.58C229.851 251.287 229.511 250.88 229.298 250.36C229.084 249.827 228.978 249.2 228.978 248.48V243.2H227.418C227.284 243.2 227.171 243.16 227.078 243.08C226.998 242.987 226.958 242.873 226.958 242.74V242.06C226.958 241.927 226.998 241.82 227.078 241.74C227.171 241.647 227.284 241.6 227.418 241.6H228.978V238.26C228.978 238.127 229.018 238.02 229.098 237.94C229.191 237.847 229.304 237.8 229.438 237.8H230.378C230.511 237.8 230.618 237.847 230.698 237.94C230.791 238.02 230.838 238.127 230.838 238.26V241.6H233.318C233.451 241.6 233.558 241.647 233.638 241.74C233.731 241.82 233.778 241.927 233.778 242.06V242.74C233.778 242.873 233.731 242.987 233.638 243.08C233.558 243.16 233.451 243.2 233.318 243.2H230.838V248.34C230.838 248.967 230.944 249.46 231.158 249.82C231.371 250.18 231.751 250.36 232.298 250.36H233.518C233.651 250.36 233.758 250.407 233.838 250.5C233.931 250.58 233.978 250.687 233.978 250.82V251.54C233.978 251.673 233.931 251.787 233.838 251.88C233.758 251.96 233.651 252 233.518 252H232.138ZM240.15 252.2C239.137 252.2 238.29 252.007 237.61 251.62C236.93 251.233 236.41 250.7 236.05 250.02C235.69 249.327 235.49 248.54 235.45 247.66C235.437 247.433 235.43 247.147 235.43 246.8C235.43 246.44 235.437 246.153 235.45 245.94C235.49 245.047 235.69 244.26 236.05 243.58C236.423 242.9 236.95 242.367 237.63 241.98C238.31 241.593 239.15 241.4 240.15 241.4C241.15 241.4 241.99 241.593 242.67 241.98C243.35 242.367 243.87 242.9 244.23 243.58C244.603 244.26 244.81 245.047 244.85 245.94C244.863 246.153 244.87 246.44 244.87 246.8C244.87 247.147 244.863 247.433 244.85 247.66C244.81 248.54 244.61 249.327 244.25 250.02C243.89 250.7 243.37 251.233 242.69 251.62C242.01 252.007 241.163 252.2 240.15 252.2ZM240.15 250.66C240.977 250.66 241.637 250.4 242.13 249.88C242.623 249.347 242.89 248.573 242.93 247.56C242.943 247.36 242.95 247.107 242.95 246.8C242.95 246.493 242.943 246.24 242.93 246.04C242.89 245.027 242.623 244.26 242.13 243.74C241.637 243.207 240.977 242.94 240.15 242.94C239.323 242.94 238.657 243.207 238.15 243.74C237.657 244.26 237.397 245.027 237.37 246.04C237.357 246.24 237.35 246.493 237.35 246.8C237.35 247.107 237.357 247.36 237.37 247.56C237.397 248.573 237.657 249.347 238.15 249.88C238.657 250.4 239.323 250.66 240.15 250.66Z" fill="black"/>
<path d="M157.03 188.225L159.442 179.563L158.565 177.009C156.701 176.676 155.165 175.676 154.178 174.344L150.889 186.004L144.419 197.664C143.541 199.218 144.09 201.217 145.625 202.106C147.16 202.994 149.134 202.439 150.011 200.884L156.81 188.891C156.92 188.669 157.03 188.447 157.03 188.225Z" fill="#124C5F"/>
<path d="M146.064 164.35C147.051 164.905 148.367 164.461 148.915 163.35L153.85 153.134L154.727 152.468L155.165 149.691C155.385 148.248 156.043 146.915 156.92 145.805L150.998 149.691C150.669 149.913 150.45 150.247 150.231 150.58L145.077 161.351C144.528 162.462 144.967 163.794 146.064 164.35Z" fill="#124C5F"/>
<path d="M164.486 143.473C167.757 143.473 170.408 140.788 170.408 137.476C170.408 134.164 167.757 131.48 164.486 131.48C161.216 131.48 158.565 134.164 158.565 137.476C158.565 140.788 161.216 143.473 164.486 143.473Z" fill="#124C5F"/>
<path d="M203.087 188.225C203.087 188.225 203.196 188.336 203.196 188.447C204.074 187.892 204.402 186.67 204.402 186.67C207.692 187.669 208.35 184.56 208.35 184.56C208.789 183.672 206.596 182.783 206.596 182.783C206.486 180.562 203.964 179.896 203.964 179.896C202.758 178.786 203.087 179.896 203.087 179.896C201.88 179.785 201.113 180.229 201.113 180.229C199.139 178.341 197.933 181.229 197.933 181.229C197.604 181.229 197.384 181.34 197.055 181.34C199.029 184.005 201.113 186.337 203.087 188.225Z" fill="#124C5F"/>
<path d="M205.828 194.999C205.28 194.443 201.332 192 201.332 192C202.209 191.556 202.319 189.668 202.319 189.002C200.235 187.003 198.042 184.449 195.849 181.562C194.752 181.784 187.515 184.893 180.497 181.673C177.865 180.451 175.562 182.228 175.562 182.228C173.588 184.56 174.465 188.336 174.465 188.336L177.207 185.338C178.632 184.227 179.181 184.449 179.51 185.004C179.729 185.449 179.619 186.004 179.29 186.448C176.659 189.224 177.536 192.111 177.536 192.111L173.807 195.443C172.382 196.998 174.027 198.219 174.027 198.219C174.356 196.998 176.988 195.11 176.988 195.11C176.878 196.553 177.536 196.887 177.536 196.887C179.4 196.331 178.961 194.443 178.961 194.443C181.922 194.332 182.251 193 182.251 193C185.212 193.555 186.638 191.556 186.638 191.556C187.405 193 194.094 194.555 194.094 194.555C194.533 194.777 197.055 199.885 197.055 199.885C197.604 199.996 198.152 200.773 198.152 200.773C199.358 201.551 201.88 200.662 201.88 200.662C201.661 199.663 200.345 199.663 200.345 199.663C197.384 199.663 197.823 194.666 197.823 194.666C197.932 193.999 200.235 195.221 200.235 195.221L205.28 197.109C207.802 198.441 208.898 196.887 208.898 196.887C209.666 195.665 205.828 194.999 205.828 194.999Z" fill="#124C5F"/>
<path d="M181.045 155.466C183.567 161.129 188.94 172.345 195.849 181.451C196.178 181.34 196.616 181.34 197.055 181.229C196.945 181.118 196.836 181.007 196.726 180.785C189.818 171.79 184.444 160.574 182.032 155.022C181.593 155.355 181.154 155.466 181.045 155.466Z" fill="#124C5F"/>
<path d="M180.935 154.355C182.032 153.911 182.69 152.69 182.251 151.579C181.813 150.469 180.606 149.802 179.51 150.247L173.588 152.356C166.68 145.805 166.351 144.694 163.609 144.25C160.1 143.695 156.81 146.249 156.262 149.802L153.63 168.458C153.082 172.012 155.604 175.343 159.113 175.899C159.223 175.899 159.332 175.899 159.442 175.899L162.293 184.56L156.481 193.222C155.494 194.666 155.823 196.775 157.358 197.775C158.784 198.774 160.868 198.441 161.854 196.887L168.653 186.892C169.202 186.004 169.421 185.004 169.092 184.005L165.473 173.011C166.022 172.234 166.46 171.235 166.57 170.235L168.982 153.689L171.724 156.354C172.272 156.909 173.149 157.132 173.917 156.798L180.935 154.355Z" fill="#124C5F"/>
<defs>
<filter id="filter0_d_27_1283" x="0" y="0.189819" width="348" height="372.81" filterUnits="userSpaceOnUse" color-interpolation-filters="sRGB">
<feFlood flood-opacity="0" result="BackgroundImageFix"/>
<feColorMatrix in="SourceAlpha" type="matrix" values="0 0 0 0 0 0 0 0 0 0 0 0 0 0 0 0 0 0 127 0" result="hardAlpha"/>
<feOffset dy="4"/>
<feGaussianBlur stdDeviation="37"/>
<feColorMatrix type="matrix" values="0 0 0 0 0.780392 0 0 0 0 0.905882 0 0 0 0 0.882353 0 0 0 0.27 0"/>
<feBlend mode="normal" in2="BackgroundImageFix" result="effect1_dropShadow_27_1283"/>
<feBlend mode="normal" in="SourceGraphic" in2="effect1_dropShadow_27_1283" result="shape"/>
</filter>
<linearGradient id="paint0_linear_27_1283" x1="174" y1="70.1898" x2="174" y2="295" gradientUnits="userSpaceOnUse">
<stop stop-color="#FFFAE0"/>
<stop offset="1" stop-color="white" stop-opacity="0"/>
</linearGradient>
</defs>
</svg>
