<svg width="348" height="373" viewBox="0 0 348 373" fill="none" xmlns="http://www.w3.org/2000/svg">
<g filter="url(#filter0_d_27_1272)">
<rect x="74" y="70.1898" width="200" height="224.81" rx="25" fill="url(#paint0_linear_27_1272)"/>
<rect x="74.5" y="70.6898" width="199" height="223.81" rx="24.5" stroke="#98F2E1"/>
</g>
<path d="M133.82 252.2C132.647 252.2 131.647 251.98 130.82 251.54C130.007 251.1 129.38 250.48 128.94 249.68C128.513 248.88 128.273 247.94 128.22 246.86C128.207 246.273 128.2 245.653 128.2 245C128.2 244.333 128.207 243.7 128.22 243.1C128.273 242.02 128.513 241.087 128.94 240.3C129.38 239.513 130.013 238.9 130.84 238.46C131.667 238.02 132.66 237.8 133.82 237.8C134.767 237.8 135.587 237.933 136.28 238.2C136.973 238.467 137.54 238.807 137.98 239.22C138.433 239.62 138.767 240.04 138.98 240.48C139.207 240.92 139.327 241.307 139.34 241.64C139.353 241.76 139.32 241.86 139.24 241.94C139.16 242.007 139.053 242.04 138.92 242.04H137.74C137.607 242.04 137.507 242.013 137.44 241.96C137.387 241.907 137.333 241.813 137.28 241.68C137.16 241.333 136.96 240.993 136.68 240.66C136.413 240.327 136.047 240.053 135.58 239.84C135.127 239.613 134.54 239.5 133.82 239.5C132.767 239.5 131.913 239.787 131.26 240.36C130.62 240.933 130.273 241.88 130.22 243.2C130.18 244.387 130.18 245.573 130.22 246.76C130.273 248.093 130.627 249.053 131.28 249.64C131.933 250.213 132.787 250.5 133.84 250.5C134.547 250.5 135.173 250.373 135.72 250.12C136.28 249.853 136.72 249.447 137.04 248.9C137.36 248.353 137.52 247.66 137.52 246.82V245.98H134.52C134.387 245.98 134.273 245.94 134.18 245.86C134.1 245.767 134.06 245.647 134.06 245.5V244.86C134.06 244.713 134.1 244.6 134.18 244.52C134.273 244.427 134.387 244.38 134.52 244.38H139.04C139.187 244.38 139.3 244.427 139.38 244.52C139.46 244.6 139.5 244.713 139.5 244.86V246.78C139.5 247.873 139.273 248.827 138.82 249.64C138.38 250.453 137.733 251.087 136.88 251.54C136.027 251.98 135.007 252.2 133.82 252.2ZM145.973 252.2C145.12 252.2 144.393 252.013 143.793 251.64C143.207 251.253 142.76 250.72 142.453 250.04C142.147 249.36 141.993 248.58 141.993 247.7V242.06C141.993 241.927 142.033 241.82 142.113 241.74C142.207 241.647 142.32 241.6 142.453 241.6H143.453C143.587 241.6 143.693 241.647 143.773 241.74C143.867 241.82 143.913 241.927 143.913 242.06V247.6C143.913 249.587 144.78 250.58 146.513 250.58C147.34 250.58 148 250.32 148.493 249.8C149 249.267 149.253 248.533 149.253 247.6V242.06C149.253 241.927 149.293 241.82 149.373 241.74C149.467 241.647 149.58 241.6 149.713 241.6H150.693C150.84 241.6 150.953 241.647 151.033 241.74C151.113 241.82 151.153 241.927 151.153 242.06V251.54C151.153 251.673 151.113 251.787 151.033 251.88C150.953 251.96 150.84 252 150.693 252H149.773C149.64 252 149.527 251.96 149.433 251.88C149.353 251.787 149.313 251.673 149.313 251.54V250.66C148.953 251.127 148.513 251.5 147.993 251.78C147.487 252.06 146.813 252.2 145.973 252.2ZM157.025 252.2C156.358 252.2 155.751 252.067 155.205 251.8C154.658 251.533 154.218 251.173 153.885 250.72C153.551 250.267 153.385 249.753 153.385 249.18C153.385 248.26 153.758 247.527 154.505 246.98C155.251 246.433 156.225 246.073 157.425 245.9L160.405 245.48V244.9C160.405 244.26 160.218 243.76 159.845 243.4C159.485 243.04 158.891 242.86 158.065 242.86C157.465 242.86 156.978 242.98 156.605 243.22C156.245 243.46 155.991 243.767 155.845 244.14C155.765 244.34 155.625 244.44 155.425 244.44H154.525C154.378 244.44 154.265 244.4 154.185 244.32C154.118 244.227 154.085 244.12 154.085 244C154.085 243.8 154.158 243.553 154.305 243.26C154.465 242.967 154.705 242.68 155.025 242.4C155.345 242.12 155.751 241.887 156.245 241.7C156.751 241.5 157.365 241.4 158.085 241.4C158.885 241.4 159.558 241.507 160.105 241.72C160.651 241.92 161.078 242.193 161.385 242.54C161.705 242.887 161.931 243.28 162.065 243.72C162.211 244.16 162.285 244.607 162.285 245.06V251.54C162.285 251.673 162.238 251.787 162.145 251.88C162.065 251.96 161.958 252 161.825 252H160.905C160.758 252 160.645 251.96 160.565 251.88C160.485 251.787 160.445 251.673 160.445 251.54V250.68C160.271 250.92 160.038 251.16 159.745 251.4C159.451 251.627 159.085 251.82 158.645 251.98C158.205 252.127 157.665 252.2 157.025 252.2ZM157.445 250.7C157.991 250.7 158.491 250.587 158.945 250.36C159.398 250.12 159.751 249.753 160.005 249.26C160.271 248.767 160.405 248.147 160.405 247.4V246.84L158.085 247.18C157.138 247.313 156.425 247.54 155.945 247.86C155.465 248.167 155.225 248.56 155.225 249.04C155.225 249.413 155.331 249.727 155.545 249.98C155.771 250.22 156.051 250.4 156.385 250.52C156.731 250.64 157.085 250.7 157.445 250.7ZM165.62 252C165.486 252 165.373 251.96 165.28 251.88C165.2 251.787 165.16 251.673 165.16 251.54V242.08C165.16 241.947 165.2 241.833 165.28 241.74C165.373 241.647 165.486 241.6 165.62 241.6H166.54C166.673 241.6 166.786 241.647 166.88 241.74C166.973 241.833 167.02 241.947 167.02 242.08V242.96C167.286 242.507 167.653 242.167 168.12 241.94C168.586 241.713 169.146 241.6 169.8 241.6H170.6C170.733 241.6 170.84 241.647 170.92 241.74C171 241.82 171.04 241.927 171.04 242.06V242.88C171.04 243.013 171 243.12 170.92 243.2C170.84 243.28 170.733 243.32 170.6 243.32H169.4C168.68 243.32 168.113 243.533 167.7 243.96C167.286 244.373 167.08 244.94 167.08 245.66V251.54C167.08 251.673 167.033 251.787 166.94 251.88C166.846 251.96 166.733 252 166.6 252H165.62ZM176.342 252.2C175.609 252.2 174.976 252.073 174.443 251.82C173.909 251.553 173.469 251.2 173.123 250.76C172.789 250.307 172.536 249.793 172.363 249.22C172.203 248.647 172.109 248.04 172.083 247.4C172.069 247.187 172.063 246.987 172.063 246.8C172.063 246.613 172.069 246.413 172.083 246.2C172.109 245.573 172.203 244.973 172.363 244.4C172.536 243.827 172.789 243.313 173.123 242.86C173.469 242.407 173.909 242.053 174.443 241.8C174.976 241.533 175.609 241.4 176.342 241.4C177.129 241.4 177.783 241.54 178.303 241.82C178.823 242.1 179.249 242.447 179.583 242.86V238.26C179.583 238.127 179.623 238.02 179.703 237.94C179.796 237.847 179.909 237.8 180.043 237.8H181.003C181.136 237.8 181.243 237.847 181.323 237.94C181.416 238.02 181.463 238.127 181.463 238.26V251.54C181.463 251.673 181.416 251.787 181.323 251.88C181.243 251.96 181.136 252 181.003 252H180.103C179.956 252 179.843 251.96 179.763 251.88C179.683 251.787 179.643 251.673 179.643 251.54V250.7C179.309 251.127 178.876 251.487 178.343 251.78C177.809 252.06 177.143 252.2 176.342 252.2ZM176.763 250.58C177.429 250.58 177.963 250.427 178.363 250.12C178.763 249.813 179.063 249.427 179.263 248.96C179.463 248.48 179.569 247.993 179.583 247.5C179.596 247.287 179.603 247.033 179.603 246.74C179.603 246.433 179.596 246.173 179.583 245.96C179.569 245.493 179.456 245.033 179.243 244.58C179.043 244.127 178.736 243.753 178.323 243.46C177.923 243.167 177.403 243.02 176.763 243.02C176.083 243.02 175.543 243.173 175.143 243.48C174.743 243.773 174.456 244.167 174.283 244.66C174.109 245.14 174.009 245.66 173.983 246.22C173.969 246.607 173.969 246.993 173.983 247.38C174.009 247.94 174.109 248.467 174.283 248.96C174.456 249.44 174.743 249.833 175.143 250.14C175.543 250.433 176.083 250.58 176.763 250.58ZM188.577 252.2C187.204 252.2 186.11 251.78 185.297 250.94C184.484 250.087 184.037 248.927 183.957 247.46C183.944 247.287 183.937 247.067 183.937 246.8C183.937 246.52 183.944 246.293 183.957 246.12C184.01 245.173 184.23 244.347 184.617 243.64C185.004 242.92 185.53 242.367 186.197 241.98C186.877 241.593 187.67 241.4 188.577 241.4C189.59 241.4 190.437 241.613 191.117 242.04C191.81 242.467 192.337 243.073 192.697 243.86C193.057 244.647 193.237 245.567 193.237 246.62V246.96C193.237 247.107 193.19 247.22 193.097 247.3C193.017 247.38 192.91 247.42 192.777 247.42H185.857C185.857 247.433 185.857 247.46 185.857 247.5C185.857 247.54 185.857 247.573 185.857 247.6C185.884 248.147 186.004 248.66 186.217 249.14C186.43 249.607 186.737 249.987 187.137 250.28C187.537 250.573 188.017 250.72 188.577 250.72C189.057 250.72 189.457 250.647 189.777 250.5C190.097 250.353 190.357 250.193 190.557 250.02C190.757 249.833 190.89 249.693 190.957 249.6C191.077 249.427 191.17 249.327 191.237 249.3C191.304 249.26 191.41 249.24 191.557 249.24H192.517C192.65 249.24 192.757 249.28 192.837 249.36C192.93 249.427 192.97 249.527 192.957 249.66C192.944 249.86 192.837 250.107 192.637 250.4C192.437 250.68 192.15 250.96 191.777 251.24C191.404 251.52 190.95 251.753 190.417 251.94C189.884 252.113 189.27 252.2 188.577 252.2ZM185.857 246.04H191.337V245.98C191.337 245.38 191.224 244.847 190.997 244.38C190.784 243.913 190.47 243.547 190.057 243.28C189.644 243 189.15 242.86 188.577 242.86C188.004 242.86 187.51 243 187.097 243.28C186.697 243.547 186.39 243.913 186.177 244.38C185.964 244.847 185.857 245.38 185.857 245.98V246.04ZM196.088 252C195.955 252 195.842 251.96 195.748 251.88C195.668 251.787 195.628 251.673 195.628 251.54V242.08C195.628 241.947 195.668 241.833 195.748 241.74C195.842 241.647 195.955 241.6 196.088 241.6H197.008C197.142 241.6 197.255 241.647 197.348 241.74C197.442 241.833 197.488 241.947 197.488 242.08V242.96C197.755 242.507 198.122 242.167 198.588 241.94C199.055 241.713 199.615 241.6 200.268 241.6H201.068C201.202 241.6 201.308 241.647 201.388 241.74C201.468 241.82 201.508 241.927 201.508 242.06V242.88C201.508 243.013 201.468 243.12 201.388 243.2C201.308 243.28 201.202 243.32 201.068 243.32H199.868C199.148 243.32 198.582 243.533 198.168 243.96C197.755 244.373 197.548 244.94 197.548 245.66V251.54C197.548 251.673 197.502 251.787 197.408 251.88C197.315 251.96 197.202 252 197.068 252H196.088ZM203.686 252C203.553 252 203.439 251.96 203.346 251.88C203.266 251.787 203.226 251.673 203.226 251.54V242.06C203.226 241.927 203.266 241.82 203.346 241.74C203.439 241.647 203.553 241.6 203.686 241.6H204.646C204.779 241.6 204.886 241.647 204.966 241.74C205.046 241.82 205.086 241.927 205.086 242.06V251.54C205.086 251.673 205.046 251.787 204.966 251.88C204.886 251.96 204.779 252 204.646 252H203.686ZM203.626 240.1C203.413 240.1 203.306 239.993 203.306 239.78C203.306 239.673 203.339 239.587 203.406 239.52L204.906 237.72C205.026 237.573 205.133 237.48 205.226 237.44C205.319 237.387 205.459 237.36 205.646 237.36H207.006C207.259 237.36 207.386 237.487 207.386 237.74C207.386 237.833 207.353 237.913 207.286 237.98L204.966 239.88C204.859 239.973 204.759 240.033 204.666 240.06C204.573 240.087 204.453 240.1 204.306 240.1H203.626ZM210.97 252.2C210.303 252.2 209.697 252.067 209.15 251.8C208.603 251.533 208.163 251.173 207.83 250.72C207.497 250.267 207.33 249.753 207.33 249.18C207.33 248.26 207.703 247.527 208.45 246.98C209.197 246.433 210.17 246.073 211.37 245.9L214.35 245.48V244.9C214.35 244.26 214.163 243.76 213.79 243.4C213.43 243.04 212.837 242.86 212.01 242.86C211.41 242.86 210.923 242.98 210.55 243.22C210.19 243.46 209.937 243.767 209.79 244.14C209.71 244.34 209.57 244.44 209.37 244.44H208.47C208.323 244.44 208.21 244.4 208.13 244.32C208.063 244.227 208.03 244.12 208.03 244C208.03 243.8 208.103 243.553 208.25 243.26C208.41 242.967 208.65 242.68 208.97 242.4C209.29 242.12 209.697 241.887 210.19 241.7C210.697 241.5 211.31 241.4 212.03 241.4C212.83 241.4 213.503 241.507 214.05 241.72C214.597 241.92 215.023 242.193 215.33 242.54C215.65 242.887 215.877 243.28 216.01 243.72C216.157 244.16 216.23 244.607 216.23 245.06V251.54C216.23 251.673 216.183 251.787 216.09 251.88C216.01 251.96 215.903 252 215.77 252H214.85C214.703 252 214.59 251.96 214.51 251.88C214.43 251.787 214.39 251.673 214.39 251.54V250.68C214.217 250.92 213.983 251.16 213.69 251.4C213.397 251.627 213.03 251.82 212.59 251.98C212.15 252.127 211.61 252.2 210.97 252.2ZM211.39 250.7C211.937 250.7 212.437 250.587 212.89 250.36C213.343 250.12 213.697 249.753 213.95 249.26C214.217 248.767 214.35 248.147 214.35 247.4V246.84L212.03 247.18C211.083 247.313 210.37 247.54 209.89 247.86C209.41 248.167 209.17 248.56 209.17 249.04C209.17 249.413 209.277 249.727 209.49 249.98C209.717 250.22 209.997 250.4 210.33 250.52C210.677 250.64 211.03 250.7 211.39 250.7Z" fill="black"/>
<path d="M190.876 173.317C188.376 172.91 185.903 174.257 184.858 176.592C184.656 177.045 184.518 177.515 184.439 177.989C187.019 176.716 189.274 175.181 191.221 173.373L190.876 173.317Z" fill="#124C5F"/>
<path d="M193.195 150.691C197.883 147.603 199.21 141.251 196.161 136.505C193.111 131.759 186.839 130.415 182.151 133.504C177.464 136.592 176.137 142.944 179.186 147.69C182.236 152.436 188.508 153.78 193.195 150.691Z" fill="#124C5F"/>
<path d="M211.781 153.28C207.402 147.789 201.454 147.726 198.169 149.966C194.884 152.204 195.124 157.892 197.867 161.711C197.992 161.921 198.124 162.141 198.254 162.357C199.199 159.453 199.332 157.345 199.334 157.316C199.43 154.852 201.404 152.928 203.828 152.928C203.884 152.928 203.941 152.929 203.997 152.931C206.477 153.023 208.421 155.141 208.329 157.653V157.661L208.326 157.702C208.253 159.108 207.777 164.165 204.762 170.174C204.488 170.725 204.164 171.33 203.793 171.97C204.425 173.192 205.033 174.441 205.587 175.71L201.748 175.085C199.151 178.608 195.178 182.604 189.263 185.735L206.426 200.122C207.476 201.002 208.747 201.431 210.011 201.431C211.629 201.431 213.235 200.727 214.348 199.366C216.329 196.942 215.995 193.35 213.601 191.344L209.474 187.883L210.809 188.101C211.223 188.168 211.632 188.185 212.034 188.161C213.004 188.208 214.144 187.865 215.546 187.37C219.441 185.995 223.857 183.572 222.709 176.186C220.392 166.265 217.757 160.867 211.781 153.28Z" fill="#124C5F"/>
<path d="M203.96 169.76C207.201 163.301 207.411 157.955 207.43 157.619C207.503 155.606 205.952 153.915 203.965 153.842C201.98 153.767 200.312 155.334 200.234 157.342L200.234 157.342C200.228 157.574 199.928 161.97 197.298 166.924C194.64 171.886 189.861 177.461 180.188 180.722C178.299 181.353 177.273 183.414 177.897 185.327C178.396 186.86 179.804 187.832 181.316 187.832C181.69 187.832 182.071 187.772 182.445 187.647C194.273 183.728 200.75 176.21 203.96 169.76Z" fill="#124C5F"/>
<path d="M156.533 187.104C158.17 187.419 160.14 187.938 160.661 188.497C162.063 189.995 162.748 193.09 164.566 193.307C165.836 193.458 166.282 193.43 167.856 192.402C169.409 191.384 167.934 187.423 167.563 185.901C167.037 183.742 168.291 181.37 168.31 181.225C168.326 181.104 169.406 178.811 172.528 179.682C173.618 179.988 172.98 177.947 171.272 176.928C169.242 175.717 167.773 176.281 166.289 177.46C163.424 175.239 158.935 175.673 156.383 176.64C155.975 178.323 155.817 179.952 155.817 181.45C155.816 183.728 156.176 185.703 156.533 187.104ZM163.809 182.313C164.476 181.852 165.386 182.027 165.842 182.702C166.297 183.378 166.124 184.301 165.457 184.76C164.788 185.221 163.879 185.047 163.423 184.371C162.969 183.696 163.141 182.774 163.809 182.313Z" fill="#124C5F"/>
<path d="M154.543 176.588C153.879 176.598 153.246 176.578 152.642 176.531C152.431 176.478 152.212 176.444 151.983 176.456C151.969 176.457 151.956 176.462 151.942 176.463C142.76 175.407 140.261 168.373 129.534 175.672C126.294 174.708 122.431 172.636 119.505 168.213C118.913 167.324 117.723 167.091 116.847 167.69C115.967 168.287 115.735 169.492 116.329 170.382C119.112 174.546 122.551 176.985 125.779 178.414C125.741 178.495 125.701 178.59 125.662 178.681C124.834 179.941 124.187 181.602 123.765 183.815C123.706 184.138 121.079 201.115 125.205 201.115C129.331 201.115 130.464 188.272 132.768 186.628C133.092 186.657 139.212 193.151 144.44 192.335C145.665 192.143 147.323 191.377 148.705 190.562L150.966 199.73C151.22 200.759 152.128 201.456 153.146 201.456C153.258 201.456 153.371 201.448 153.484 201.431C154.632 201.256 155.459 200.233 155.398 199.058L154.811 187.643C154.416 186.121 154.017 183.967 154.015 181.45C154.016 179.937 154.163 178.296 154.543 176.588Z" fill="#124C5F"/>
<path d="M174.626 199.008H174.058L172.899 195.37H159.909L158.749 199.008H158.18C157.723 199.008 157.351 199.384 157.351 199.848C157.351 200.312 157.723 200.688 158.18 200.688H174.626C175.083 200.688 175.455 200.312 175.455 199.848C175.455 199.384 175.083 199.008 174.626 199.008Z" fill="#124C5F"/>
<defs>
<filter id="filter0_d_27_1272" x="0" y="0.189819" width="348" height="372.81" filterUnits="userSpaceOnUse" color-interpolation-filters="sRGB">
<feFlood flood-opacity="0" result="BackgroundImageFix"/>
<feColorMatrix in="SourceAlpha" type="matrix" values="0 0 0 0 0 0 0 0 0 0 0 0 0 0 0 0 0 0 127 0" result="hardAlpha"/>
<feOffset dy="4"/>
<feGaussianBlur stdDeviation="37"/>
<feColorMatrix type="matrix" values="0 0 0 0 0.780392 0 0 0 0 0.905882 0 0 0 0 0.882353 0 0 0 0.27 0"/>
<feBlend mode="normal" in2="BackgroundImageFix" result="effect1_dropShadow_27_1272"/>
<feBlend mode="normal" in="SourceGraphic" in2="effect1_dropShadow_27_1272" result="shape"/>
</filter>
<linearGradient id="paint0_linear_27_1272" x1="174" y1="70.1898" x2="174" y2="295" gradientUnits="userSpaceOnUse">
<stop stop-color="#F9FFFE"/>
<stop offset="1" stop-color="white" stop-opacity="0"/>
</linearGradient>
</defs>
</svg>
