<svg width="202" height="61" viewBox="0 0 202 61" fill="none" xmlns="http://www.w3.org/2000/svg">
<path d="M70.8438 34.0938H65.125V30.1406H70.8438C71.6875 30.1406 72.3646 30 72.875 29.7188C73.3958 29.4375 73.776 29.0521 74.0156 28.5625C74.2656 28.0625 74.3906 27.5 74.3906 26.875C74.3906 26.2292 74.2656 25.6302 74.0156 25.0781C73.776 24.5156 73.3958 24.0625 72.875 23.7188C72.3646 23.375 71.6875 23.2031 70.8438 23.2031H66.9688V42H61.875V19.25H70.8438C72.6562 19.25 74.2083 19.5781 75.5 20.2344C76.8021 20.8906 77.7969 21.7917 78.4844 22.9375C79.1823 24.0729 79.5312 25.375 79.5312 26.8438C79.5312 28.3125 79.1823 29.5885 78.4844 30.6719C77.7969 31.7552 76.8021 32.599 75.5 33.2031C74.2083 33.7969 72.6562 34.0938 70.8438 34.0938ZM92.2969 37.9219V25.0938H97.2031V42H92.6094L92.2969 37.9219ZM92.8125 34.4688L94.1562 34.4375C94.1562 35.5729 94.0208 36.6198 93.75 37.5781C93.4896 38.5365 93.0938 39.3698 92.5625 40.0781C92.0417 40.7865 91.3906 41.3385 90.6094 41.7344C89.8385 42.1198 88.9375 42.3125 87.9062 42.3125C87.0729 42.3125 86.3073 42.1979 85.6094 41.9688C84.9219 41.7292 84.3281 41.3594 83.8281 40.8594C83.3281 40.349 82.9427 39.6979 82.6719 38.9062C82.401 38.1042 82.2656 37.1458 82.2656 36.0312V25.0938H87.1406V36.0625C87.1406 36.5 87.1927 36.875 87.2969 37.1875C87.4115 37.4896 87.5625 37.7396 87.75 37.9375C87.9479 38.1354 88.1875 38.2812 88.4688 38.375C88.7604 38.4688 89.0781 38.5156 89.4219 38.5156C90.2865 38.5156 90.9635 38.3385 91.4531 37.9844C91.9531 37.6198 92.3021 37.1354 92.5 36.5312C92.7083 35.9167 92.8125 35.2292 92.8125 34.4688ZM105.266 28.3438V48.5H100.391V25.0938H104.938L105.266 28.3438ZM115.812 33.3594V33.6875C115.812 34.9167 115.672 36.0573 115.391 37.1094C115.109 38.151 114.688 39.0625 114.125 39.8438C113.573 40.625 112.891 41.2344 112.078 41.6719C111.266 42.099 110.323 42.3125 109.25 42.3125C108.229 42.3125 107.344 42.099 106.594 41.6719C105.854 41.2344 105.229 40.6302 104.719 39.8594C104.219 39.0781 103.812 38.1875 103.5 37.1875C103.198 36.1771 102.964 35.099 102.797 33.9531V33.3125C102.964 32.0938 103.203 30.9635 103.516 29.9219C103.828 28.8802 104.234 27.9792 104.734 27.2188C105.234 26.4479 105.854 25.849 106.594 25.4219C107.333 24.9948 108.214 24.7812 109.234 24.7812C110.297 24.7812 111.24 24.9844 112.062 25.3906C112.885 25.7969 113.573 26.3802 114.125 27.1406C114.688 27.8906 115.109 28.7917 115.391 29.8438C115.672 30.8958 115.812 32.0677 115.812 33.3594ZM110.922 33.6875V33.3594C110.922 32.6719 110.87 32.0417 110.766 31.4688C110.661 30.8854 110.495 30.3802 110.266 29.9531C110.036 29.5156 109.734 29.1771 109.359 28.9375C108.984 28.6979 108.526 28.5781 107.984 28.5781C107.401 28.5781 106.906 28.6719 106.5 28.8594C106.094 29.0469 105.766 29.3229 105.516 29.6875C105.266 30.0417 105.083 30.4792 104.969 31C104.865 31.5208 104.807 32.1146 104.797 32.7812V34.5C104.807 35.2812 104.917 35.9792 105.125 36.5938C105.344 37.1979 105.682 37.6719 106.141 38.0156C106.609 38.349 107.234 38.5156 108.016 38.5156C108.568 38.5156 109.026 38.3958 109.391 38.1562C109.766 37.9062 110.062 37.5573 110.281 37.1094C110.51 36.6615 110.672 36.1458 110.766 35.5625C110.87 34.9792 110.922 34.3542 110.922 33.6875Z" fill="#FF9E00"/>
<path d="M123.172 18V42H118.297V18H123.172ZM122.531 32.9531L121.312 32.9844C121.312 31.7969 121.458 30.7083 121.75 29.7188C122.052 28.7188 122.479 27.849 123.031 27.1094C123.583 26.3698 124.245 25.7969 125.016 25.3906C125.797 24.9844 126.656 24.7812 127.594 24.7812C128.427 24.7812 129.188 24.901 129.875 25.1406C130.562 25.3802 131.156 25.7604 131.656 26.2812C132.156 26.8021 132.542 27.4844 132.812 28.3281C133.083 29.1719 133.219 30.1979 133.219 31.4062V42H128.312V31.375C128.312 30.6562 128.208 30.0938 128 29.6875C127.802 29.2812 127.51 28.9948 127.125 28.8281C126.75 28.6615 126.292 28.5781 125.75 28.5781C125.115 28.5781 124.589 28.6927 124.172 28.9219C123.755 29.1406 123.427 29.4479 123.188 29.8438C122.948 30.2396 122.776 30.7031 122.672 31.2344C122.578 31.7656 122.531 32.3385 122.531 32.9531ZM146.328 37.9219V25.0938H151.234V42H146.641L146.328 37.9219ZM146.844 34.4688L148.188 34.4375C148.188 35.5729 148.052 36.6198 147.781 37.5781C147.521 38.5365 147.125 39.3698 146.594 40.0781C146.073 40.7865 145.422 41.3385 144.641 41.7344C143.87 42.1198 142.969 42.3125 141.938 42.3125C141.104 42.3125 140.339 42.1979 139.641 41.9688C138.953 41.7292 138.359 41.3594 137.859 40.8594C137.359 40.349 136.974 39.6979 136.703 38.9062C136.432 38.1042 136.297 37.1458 136.297 36.0312V25.0938H141.172V36.0625C141.172 36.5 141.224 36.875 141.328 37.1875C141.443 37.4896 141.594 37.7396 141.781 37.9375C141.979 38.1354 142.219 38.2812 142.5 38.375C142.792 38.4688 143.109 38.5156 143.453 38.5156C144.318 38.5156 144.995 38.3385 145.484 37.9844C145.984 37.6198 146.333 37.1354 146.531 36.5312C146.74 35.9167 146.844 35.2292 146.844 34.4688ZM154.422 18H159.297V37.9844L158.797 42H154.422V18ZM169.844 33.3594V33.6875C169.844 34.9688 169.708 36.1354 169.438 37.1875C169.177 38.2396 168.776 39.151 168.234 39.9219C167.693 40.6823 167.01 41.2708 166.188 41.6875C165.365 42.1042 164.396 42.3125 163.281 42.3125C162.25 42.3125 161.365 42.099 160.625 41.6719C159.885 41.2344 159.266 40.6302 158.766 39.8594C158.266 39.0885 157.859 38.1875 157.547 37.1562C157.245 36.125 157.01 35.0156 156.844 33.8281V33.2656C157.01 32.0781 157.245 30.9688 157.547 29.9375C157.859 28.9062 158.266 28.0052 158.766 27.2344C159.266 26.4635 159.88 25.8646 160.609 25.4375C161.349 25 162.229 24.7812 163.25 24.7812C164.375 24.7812 165.349 24.9948 166.172 25.4219C167.005 25.849 167.693 26.4479 168.234 27.2188C168.776 27.9792 169.177 28.8854 169.438 29.9375C169.708 30.9792 169.844 32.1198 169.844 33.3594ZM164.969 33.6875V33.3594C164.969 32.7135 164.922 32.1042 164.828 31.5312C164.745 30.9583 164.594 30.4531 164.375 30.0156C164.167 29.5677 163.87 29.2188 163.484 28.9688C163.109 28.7083 162.625 28.5781 162.031 28.5781C161.448 28.5781 160.953 28.6771 160.547 28.875C160.141 29.0729 159.812 29.3542 159.562 29.7188C159.312 30.0729 159.13 30.5052 159.016 31.0156C158.901 31.526 158.839 32.0938 158.828 32.7188V34.375C158.839 35.2083 158.948 35.9375 159.156 36.5625C159.365 37.1875 159.703 37.6719 160.172 38.0156C160.641 38.349 161.271 38.5156 162.062 38.5156C162.667 38.5156 163.156 38.401 163.531 38.1719C163.917 37.9323 164.208 37.599 164.406 37.1719C164.615 36.7448 164.76 36.2344 164.844 35.6406C164.927 35.0469 164.969 34.3958 164.969 33.6875Z" fill="#FFC400"/>
<path d="M30.6109 31.9848C29.8698 37.5673 33.8696 38.5744 36.862 43.5262C41.3318 50.6189 46.2791 48.9653 47.9422 44.202C49.528 39.6249 46.1292 36.0314 46.773 31.0629C47.4168 26.0944 52.0032 21.8911 51.665 17.3873C51.3268 12.8836 46.7114 11.839 40.1756 19.5958C35.741 24.953 31.4866 26.4581 30.6109 31.9848Z" fill="#FFE55E"/>
<path d="M24.4461 17.5445C27.3266 20.4864 31.3092 20.3954 33.2959 17.512C35.2827 14.6285 34.5408 9.95709 31.583 7.20127C28.7025 4.2594 24.7199 4.35032 22.7332 7.23377C20.8237 9.93116 21.5656 14.6026 24.4461 17.5445Z" fill="#FFAA00"/>
<path d="M14.3622 31.8884C18.5166 32.5233 22.7337 30.3482 23.7985 26.6454C24.786 23.1287 22.272 19.6845 17.983 18.9937C13.8286 18.3587 9.61143 20.5338 8.54664 24.2366C7.55915 27.7534 10.2078 31.2534 14.3622 31.8884Z" fill="#FFAA00"/>
<path d="M14.0593 48.6223C18.2137 49.2572 22.4309 47.0821 23.4957 43.3793C24.4832 39.8626 21.9691 36.4184 17.6801 35.7276C13.5257 35.0926 9.30857 37.2677 8.24379 40.9705C7.25629 44.4873 9.90491 47.9873 14.0593 48.6223Z" fill="#FFAA00"/>
</svg>
